<svg xmlns="http://www.w3.org/2000/svg" viewBox="0 0 512 512" style="enable-background:new 0 0 512 512" xml:space="preserve"><circle style="fill:#fde085" cx="256" cy="256" r="256"/><path style="fill:#ffc61b" d="m173.451 419.54 92.258 92.258c128.546-4.796 232.85-104.355 245.079-230.865L284.15 54.294 173.451 419.54z"/><path style="fill:#c2001b" d="M227.556 113.778V130.2c0 30.289-9.171 59.856-26.284 84.845-29.146 42.56-59.049 94.074-59.049 126.288 0 62.645 50.631 113.452 113.204 113.764v-341.32h-27.871z"/><path style="fill:#940030" d="M310.729 215.045a150.157 150.157 0 0 1-26.284-84.845v-16.422h-29.019v341.32c.193 0 .381.014.574.014 62.838 0 113.778-50.94 113.778-113.778 0-32.215-29.903-83.729-59.049-126.289z"/><path style="fill:#ff5419" d="M277.333 130.2v-16.422h-42.667V130.2c0 30.289-6.878 59.856-19.713 84.845-21.861 42.56-44.287 94.074-44.287 126.288 0 62.838 38.205 113.778 85.333 113.778s85.333-50.94 85.333-113.778c0-32.215-22.428-83.728-44.287-126.288-12.833-24.99-19.712-54.556-19.712-84.845z"/><path style="fill:#e03a00" d="M297.046 215.045c-12.836-24.99-19.713-54.556-19.713-84.845v-16.422h-21.907v341.314c.193.002.381.019.574.019 47.128 0 85.333-50.94 85.333-113.778 0-32.214-22.428-83.728-44.287-126.288z"/><path style="fill:#c2001b" d="M256 127.569c-23.29 0-42.236-18.946-42.236-42.236S232.71 43.098 256 43.098s42.236 18.946 42.236 42.236S279.29 127.569 256 127.569zm0-56.889c-8.08 0-14.653 6.573-14.653 14.653S247.92 99.987 256 99.987s14.653-6.573 14.653-14.653S264.078 70.68 256 70.68z"/><path style="fill:#940030" d="M256 43.098c-.193 0-.383.012-.574.014v27.596c.191-.007.379-.028.574-.028 8.08 0 14.653 6.573 14.653 14.653S264.08 99.987 256 99.987c-.193 0-.383-.021-.574-.029v27.598c.191.002.381.014.574.014 23.29 0 42.236-18.946 42.236-42.236S279.29 43.098 256 43.098z"/></svg>