<svg xmlns="http://www.w3.org/2000/svg" viewBox="0 0 512 512" style="enable-background:new 0 0 512 512" xml:space="preserve"><circle style="fill:#b5f1f4" cx="256" cy="256" r="256"/><path style="fill:#84dbff" d="M263.483 511.883c118.001-3.387 215.993-86.621 241.84-197.572l-85.461-85.461-30.068 36.226-128.64-128.64-6.447 64.255L93.872 342.273l169.611 169.61z"/><path style="fill:#2c9984" d="M256 235.313a7.759 7.759 0 0 1-7.758-7.758v-85.333a7.759 7.759 0 0 1 15.516 0v85.333a7.759 7.759 0 0 1-7.758 7.758z"/><path style="fill:#0b756f" d="M256.288 134.494v100.79c4.148-.155 7.47-3.543 7.47-7.728v-85.333c0-4.186-3.322-7.574-7.47-7.729z"/><path style="fill:#324a5e" d="M240.805 297.37c-6.391 42.053-43.473 74.023-87.685 72.344-44.229-1.679-80.265-37.717-81.946-81.946-1.848-48.642 37.038-88.657 85.27-88.657H354.15c46.795 0 85.944 37.086 86.726 83.875.798 47.795-37.707 86.792-85.321 86.792-42.68 0-78.041-31.332-84.337-72.251-1.157-7.521-7.608-13.083-15.217-13.083-7.55 0-14.061 5.462-15.196 12.926z"/><path style="fill:#2b3b4e" d="M354.151 199.111h-97.863v85.347c7.483.138 13.788 5.644 14.931 13.069 6.296 40.917 41.656 72.251 84.337 72.251 47.614 0 86.119-38.996 85.321-86.792-.781-46.789-39.931-83.875-86.726-83.875z"/><circle style="fill:#fd8469" cx="362.882" cy="256" r="14.222"/><circle style="fill:#fd8469" cx="362.882" cy="312.889" r="14.222"/><circle style="fill:#fd8469" cx="391.327" cy="284.444" r="14.222"/><circle style="fill:#fd8469" cx="334.438" cy="284.444" r="14.222"/><path style="fill:#fd8469" d="M178.855 269.791H167.65v-11.205c0-6.189-5.017-11.205-11.205-11.205s-11.205 5.017-11.205 11.205v11.205h-11.205c-6.189 0-11.205 5.017-11.205 11.205 0 6.189 5.017 11.205 11.205 11.205h11.205v11.205c0 6.189 5.017 11.205 11.205 11.205s11.205-5.017 11.205-11.205v-11.205h11.205c6.189 0 11.205-5.017 11.205-11.205.001-6.188-5.016-11.205-11.205-11.205z"/></svg>