<svg xmlns="http://www.w3.org/2000/svg" viewBox="0 0 300.1 260.8">
  <path d="M44.1 186.1H0v-1c5.7-5.5 11.5-10.8 17.1-16.4 6.7-6.6 13.3-13.4 19.4-19.6 12.8 12.3 25.2 24.2 37.5 36.2l.1.3c-10 .2-20 .4-30 .5zm255.9 38c-10.8 10.6-21.6 21.2-32.3 31.8-1.6 1.6-3 3.6-4.1 4.9-13-12.6-25.4-24.7-37.7-36.7 1.7-.3 3.5-.9 5.2-.9 10.3-.1 20.6-.1 30.9-.1h38.1c-.1.4-.1.7-.1 1zm-149.4-37.8h-1.1c-22.6-.1-45.2-.1-67.7-.2-1.9 0-3.8-.5-5.8-.8 23-23.2 46-46.3 69-69.5 1.5-1.5 3-3.1 4.5-4.6 11.3 11.2 22.5 22.4 33.8 33.6 1.4 1.4 3.1 2.3 4.7 3.5 9.4 9.6 18.7 19.2 28.1 28.8 2.7 2.7 5.3 5.5 7.9 8.2-1.9.3-3.8.8-5.8.8-22.5.1-45.1.1-67.6.2z"/>
  <path d="M188.1 148.3c-1.6-1.2-3.3-2.1-4.7-3.5-11.3-11.2-22.6-22.4-33.8-33.6-12.3-11.8-24.7-23.6-37-35.3.5-.6.9-1.2 1.4-1.9h73.1c.6 0 1.2 0 1.8.1h73.7c-1.7 1.8-2.8 3-3.9 4.1-22.1 22.2-44.3 44.3-66.4 66.5-1.5 1.2-2.9 2.4-4.2 3.6zm-112.2 37c1.9.3 3.8.8 5.8.8 22.6.1 45.2.2 67.7.2-13.8 14-27.6 27.9-41.4 41.9-3.5 3.6-6.9 7.2-10.4 10.9-18.1-17.9-35.8-35.4-53.5-52.9 10-.2 20-.3 29.9-.5l.4.1.4-.1c.4-.2.8-.3 1.1-.4z"/>
  <path d="M188.8 74.1c-.6 0-1.2 0-1.8-.1-7.4-7.6-14.7-15.3-22.1-22.8-4.8-4.8-9.7-9.5-14.5-14.1C163.3 24.3 175.7 12 187.8 0L225 37.2c-10.9 10.6-22 21.6-33 32.6-1.3 1.3-2.2 2.8-3.2 4.3z"/>
  <path d="M150.6 186.3c22.6-.1 45.2-.1 67.7-.2 1.9 0 3.8-.5 5.8-.8 12.6 12.6 25.2 25.3 37.9 37.9-10.3 0-20.6 0-30.9.1-1.7 0-3.5.6-5.2.9-8.6-.2-17.3-1.2-25.8-.4-9.3.8-15.9-2.2-22-9.2-8.7-10-18.3-19-27.5-28.3z"/>
  <path d="m74.9 185.6-.4.1-.4-.1-.1-.3.9.3z"/>
</svg>