<svg xmlns="http://www.w3.org/2000/svg" width="235" height="162.4"><style>.st0{fill:#e0ac69}.st1{fill:#fff}.st4{fill:#aaa}.st7{fill:#fc6}.st8{fill:#f5a300}.st9{fill:none;stroke:#000;stroke-width:.5;stroke-miterlimit:10}.st14{fill:#ddd}</style><path class="st0" d="M102 48.4h31v26h-31z" id="neck"/><g id="shirt"><path class="st1" d="m102 57.4 11.5 5.2 4 6.6 5-6.6 10.5-5.2v7.5l14.3 4.3 11.2 3.7 6 17 3 19.8v49.7H67.6l-.1-51.6 5-21.7 8-14.1 21.5-4.9z"/><path d="m113 63.4-2 8-8-4m20-4 2 8 7-6M117.5 70l.5 92.4" style="fill:none;stroke:#000;stroke-width:.25;stroke-miterlimit:10"/><circle cx="120" cy="76.4" r="1"/><circle cx="120" cy="97.4" r="1"/><circle cx="120" cy="118.4" r="1"/><circle cx="120" cy="139.4" r="1"/><circle cx="120" cy="159.4" r="1"/></g><g id="ears"><ellipse class="st0" cx="99" cy="30.4" rx="2" ry="5"/><ellipse class="st0" cx="137" cy="30.4" rx="2" ry="5"/></g><path d="M129.5 53.9c-6.5 8.3-18.8 7.3-24 0-5.9-8.3-6.3-10.3-6.3-17.6 0-5-.4-11.9-.2-23.9.1-5.5 10.2-2.4 20.7-2.4 9.4 0 17.3-3.6 17.3 1.4 0 12.5-.4 19.7-.5 24.9-.1 7.2-.6 9.4-7 17.6z" fill="#ffdbac" id="head"/><g id="face"><circle class="st4" cx="108.5" cy="31.4" r="3.5"/><circle class="st4" cx="127.5" cy="31.4" r="3.5"/><path class="st0" d="M121 43h-6.2c-.6 0-.4-2.3.1-2.3h6.1c.6 0 .6 2.3 0 2.3zm-3 8.3c4.5-.1 6.5-2.9 6.5-2.9h-13s2 3 6.5 2.9z"/><path d="M102 25.4s9-1 10.5.5m21.1-.8s-9-1-10.5.5" style="fill:none;stroke:#b29258;stroke-width:1.5;stroke-miterlimit:10"/></g><path d="M136.6 31.4s.4-9-.6-11c-.2-.3-.9-.7-1-1-.4-.9-.2-3.3-1-4-5.9-5.4-20 9-31 0-.9-.7-1.3 3.1-2 4-.2.3-.8.7-1 1-1.4 2.2-1 10-1 10s-5-24 5-28c3.3-1.3 22.5-4 27-1 3 2 2 6 4 6 9 0 1.6 24 1.6 24z" fill="#dac586" id="hair"/><g id="dog"><g id="dog_1_"><ellipse class="st7" cx="29.5" cy="147.4" rx="19.5" ry="35" id="body"/><g id="Head"><path class="st7" d="M46 128.4s2-20-1-27c-1.4-3.3-1.5-3.1-4-5-4-3-16-4-21 0-2.8 2.2-4.9 4.6-6 8-2 6-1 24-1 24"/><path class="st8" d="M12 116.4c-3.2.1-6.4-10.1-6-14 .4-3.5 1-3.6 2-5 1.1-1.6 8.5-2.2 11-3 3.2-1 3.1 2.2 1.9 8-.9 4-5.9 13.9-8.9 14z"/><circle cx="23" cy="107.4" r="2"/><path class="st8" d="M47.9 116.6c3.2.1 6.4-10.1 6-14-.4-3.5-1-3.6-2-5-1.1-1.6-8.5-2.2-11-3-3.2-1-3.1 2.2-1.9 8 .9 4 6 13.9 8.9 14z"/><circle cx="37.2" cy="107.4" r="2"/><path d="M26 112.4c.5-.9 3 0 4 0 .8 0 2.8-.7 3.2 0 .8 1.1-1.8 4.4-3.2 4.5-1.5 0-4.8-3.2-4-4.5z"/><path class="st9" d="M30 116.9s-1.5 3-4.5 3c-1 0-3-1-4-3"/><path class="st9" d="M29.9 116.9s1.5 3 4.5 3c1 0 3-1 4-3"/></g><g id="Collar"><path id="Belt" d="M12.9 126.8s9.1 1.6 17.1 1.6c7 0 16.1-1.3 16.1-1.3l.5 3.4s-7.7 1-16.7 1c-9.8 0-19.4-1-17.6-1" fill="#624a2e"/><path id="Token" d="M28 131.4h4s0-1 1-1 1 .6 1 1c0 1-1 1-1 1s1 0 1 1-.6 1-1 1c-1 0-1-1-1-1h-4s0 1-1 1-1-.6-1-1c0-1 1-1 1-1s-1 0-1-1c0-.4 0-1 1-1s1 1 1 1z" fill="#848789"/></g></g><animateTransform attributeName="transform" type="translate" from="0 51" to="0 51" values="0 51; 0 50; 0 0; 0 0; 0 50; 0 51" keyTimes="0; 0.3; 0.35; 0.65; 0.7; 1" dur="7s" repeatCount="indefinite"/></g><g id="desk"><path fill="#cdaa7d" d="M0 140.4h235v22H0z"/><path d="M167 140.4H67c-2.7 0-5-2.3-5-5s2.3-5 5-5h100c2.8 0 5 2.3 5 5s-2.2 5-5 5zm3-66H64c-1.1 0-2 .9-2 2v51c0 1.1.9 2 2 2h106c1.1 0 2-.9 2-2v-51c0-1.1-.9-2-2-2z" style="fill:#555"/><g id="Cup"><path id="Steam" class="st14" transform="translate(0 20)" d="M196.2 117.4s-2.6-2.9-2.2-4c.4-1.2 1.8-1.8 2-3 .2-1.6-2-5.1-2-5.1s4.1 3 4 5.1c-.1 1.5-1.2 1.8-2 3-.6.8.2 4 .2 4z"/><path id="Steam_1_" class="st14" transform="translate(0 20)" d="M201.4 117.4s-2.6-2.9-2.2-4c.4-1.2 1.8-1.8 2-3 .2-1.6-2-5.1-2-5.1s4.1 3 4 5.1c-.1 1.5-1.2 1.8-2 3-.6.8.2 4 .2 4z"/><path id="Steam_2_" class="st14" transform="translate(0 20)" d="M206.4 117.4s-2.6-2.9-2.2-4c.4-1.2 1.8-1.8 2-3 .2-1.6-2-5.1-2-5.1s4.1 3 4 5.1c-.1 1.5-1.2 1.8-2 3-.6.8.2 4 .2 4z"/><path class="st1" d="M194 119.4h15v21h-15zm15 5.2s4 3.6 4 5.8c0 2.3-4 6-4 6v2s5.5-5 5.5-8-5.5-7.9-5.5-7.9v2.1z"/></g></g><animateTransform attributeName="transform" type="translate" from="0 20" to="0 -15" dur="2s" repeatCount="indefinite"/><animate attributeName="opacity" from="1" to="0" dur="2s" values="1; 1; 0" keyTimes="0; 0.8; 1" repeatCount="indefinite"/><animateTransform attributeName="transform" type="translate" begin="0.66s" from="0 20" to="0 -15" dur="2s" repeatCount="indefinite"/><animate attributeName="opacity" begin="0.66s" from="1" to="0" dur="2s" values="1; 1; 0" keyTimes="0; 0.8; 1" repeatCount="indefinite"/><animateTransform attributeName="transform" type="translate" begin="1.32s" from="0 20" to="0 -15" dur="2s" repeatCount="indefinite"/><animate attributeName="opacity" begin="1.32s" from="1" to="0" dur="2s" values="1; 1; 0" keyTimes="0; 0.8; 1" repeatCount="indefinite"/></svg>