<svg xmlns="http://www.w3.org/2000/svg" viewBox="0 0 175.2 62.5" xml:space="preserve"><path d="M87.6 31.3c9 8.4 18.9 17.5 28.6 26.8 6.1 5.8 12.6 6 18.4.2C146.9 45.9 159 33.5 171 21.1c5.4-5.6 5.5-13 .5-17.8-5-4.8-11.6-4.3-17.2 1.3-8.3 8.4-16.6 16.9-24.9 25.3-1.2 1.3-2.6 2.4-3.8 3.7.2-.5.5-1 .7-1.5-9.8-9.2-19.7-18.4-29.5-27.7-6.1-5.8-12.3-5.9-18.3 0-3.7 3.6-7.1 7.5-10.8 11.1-6 5.9-12.2 11.7-17.7 16.9-9.4-9-19.1-18.2-28.6-27.4-6-5.8-12.5-6.5-17.6-1.6-5.2 5.1-4.9 12.1.9 18.1C16.4 33.6 28.2 45.6 40 57.6c6.7 6.8 12.9 6.6 19.8-.1 9.4-9.2 19.1-18.1 27.8-26.2z"/><path d="M87.6 31.3c-8.7 8.1-18.4 17-27.9 26.1-7 6.7-13.2 6.9-19.8.1-11.8-12-23.5-24-35.3-36.1-5.8-6-6.1-13-.9-18.1C8.8-1.6 15.3-.9 21.3 4.9c9.6 9.3 19.2 18.4 28.6 27.4 5.5-5.2 11.7-11 17.7-16.9 3.7-3.6 7.2-7.4 10.8-11.1 6-6 12.2-5.9 18.3 0 9.8 9.3 19.7 18.5 29.5 27.7-.2.5-.5 1-.7 1.5 1.3-1.2 2.6-2.4 3.8-3.7 8.3-8.4 16.5-16.9 24.9-25.3 5.6-5.6 12.2-6.1 17.2-1.3s4.9 12.2-.5 17.8c-12.1 12.4-24.2 24.8-36.3 37.1-5.8 5.9-12.3 5.6-18.4-.2-9.7-9.1-19.6-18.2-28.6-26.6z"/></svg>