<svg xmlns="http://www.w3.org/2000/svg" viewBox="0 0 512 512">
	<circle cx="256" cy="256" r="256" fill="#386895"/>
	<path d="M512 256c0-10.23-.619-20.313-1.786-30.23L398.148 113.778 296.779 309.994l-26.7-26.7-156.301 114.928L225.77 510.214c9.915 1.167 20 1.786 30.23 1.786 141.384 0 256-114.616 256-256z" fill="#273b7a"/>
	<path fill="#ff314f" d="M113.778 113.778h284.444v85.333H113.778z"/>
	<path fill="#a30f44" d="M255.431 113.778h142.791v85.333H255.431z"/>
	<path fill="#fff" d="M113.778 170.667h284.444v227.556H113.778z"/>
	<path fill="#d0d1d3" d="M255.431 170.667h142.791v227.556H255.431z"/>
	<path d="M199.111 370.64c-26.14 0-47.407-21.268-47.407-47.407 0-7.142 5.787-12.929 12.929-12.929s12.929 5.787 12.929 12.929c0 11.883 9.666 21.549 21.549 21.549s21.549-9.666 21.549-21.549-9.666-21.549-21.549-21.549c-7.142 0-12.929-5.787-12.929-12.929s5.787-12.929 12.929-12.929c11.883 0 21.549-9.666 21.549-21.549s-9.666-21.549-21.549-21.549-21.549 9.666-21.549 21.549c0 7.142-5.787 12.929-12.929 12.929s-12.929-5.787-12.929-12.929c0-26.14 21.268-47.407 47.407-47.407s47.407 21.268 47.407 47.407c0 13.571-5.73 25.828-14.901 34.478 9.169 8.651 14.901 20.908 14.901 34.478.001 26.139-21.267 47.407-47.407 47.407z" fill="#ff314f"/>
	<path d="M324.396 363.744c-7.142 0-12.929-5.787-12.929-12.929V232.727h-13.274c-7.142 0-12.929-5.787-12.929-12.929s5.787-12.929 12.929-12.929h26.203c7.142 0 12.929 5.787 12.929 12.929v131.017c0 7.142-5.789 12.929-12.929 12.929z" fill="#a30f44"/>
</svg>