<?xml version="1.0" encoding="utf-8"?>
<!-- Generator: Adobe Illustrator 25.2.1, SVG Export Plug-In . SVG Version: 6.00 Build 0)  -->
<svg version="1.1" id="Layer_1" xmlns="http://www.w3.org/2000/svg" xmlns:xlink="http://www.w3.org/1999/xlink" x="0px" y="0px"
	 viewBox="0 0 512 512" style="enable-background:new 0 0 512 512;" xml:space="preserve">
<style type="text/css">
	.st0{fill:#FFFFFF;}
	.st1{fill:#CCCCCC;}
	.st2{fill:#375D70;}
	.st3{fill:#000412;}
	.st4{fill:#D2BCB5;}
	.st5{fill:#FFFFF5;}
	.st6{fill:#F2F5F5;}
	.st7{fill:#002237;}
	.st8{fill:#DD3D2C;}
</style>
<g>
	<g>
		<circle class="st0" cx="256" cy="256" r="256"/>
	</g>
	<path class="st1" d="M505.6,199.2l-150.5-98.4v174.8h-180v141.6L310.9,506C425.9,480.9,512,378.5,512,256
		C512,236.5,509.7,217.5,505.6,199.2z"/>
	<g>
		<g>
			<path class="st2" d="M257.4,72.5c-100.5,0-182,81.5-182,182c0,100.5,81.5,182,182,182s182-81.5,182-182
				C439.4,154,357.9,72.5,257.4,72.5z M257.4,401.2c-81,0-146.7-65.7-146.7-146.7c0-81,65.7-146.7,146.7-146.7
				c81,0,146.7,65.7,146.7,146.7C404.1,335.5,338.4,401.2,257.4,401.2z"/>
			<path class="st3" d="M257.4,72.5v35.3c81,0,146.7,65.7,146.7,146.7c0,81-65.7,146.7-146.7,146.7v35.3c100.5,0,182-81.5,182-182
				C439.4,154,357.9,72.5,257.4,72.5z"/>
			<path class="st4" d="M257.4,107.8c-81,0-146.7,65.7-146.7,146.7c0,81,65.7,146.7,146.7,146.7c81,0,146.7-65.7,146.7-146.7
				C404.1,173.5,338.4,107.8,257.4,107.8z"/>
			<path class="st5" d="M257.4,121.9c-73.2,0-132.6,59.4-132.6,132.6c0,73.2,59.4,132.6,132.6,132.6S390,327.7,390,254.5
				C390,181.3,330.6,121.9,257.4,121.9z"/>
			<path class="st6" d="M257.4,121.9c-0.2,0-0.4,0-0.7,0v265.2c0.2,0,0.4,0,0.7,0c73.2,0,132.6-59.4,132.6-132.6
				C390,181.3,330.6,121.9,257.4,121.9z"/>
			<path class="st2" d="M261.8,400.5c0,2.5-2,4.5-4.5,4.5l0,0c-2.5,0-4.5-2-4.5-4.5v-25c0-2.5,2-4.5,4.5-4.5l0,0
				c2.5,0,4.5,2,4.5,4.5V400.5z"/>
			<path class="st3" d="M257.4,371v34c2.5,0,4.4-2,4.4-4.5v-25C261.8,373,259.9,371,257.4,371z"/>
		</g>
		<path class="st7" d="M136,248.4c2.5,0,4.5,2,4.5,4.5l0,0c0,2.5-2,4.5-4.5,4.5h-25c-2.5,0-4.5-2-4.5-4.5l0,0c0-2.5,2-4.5,4.5-4.5
			H136z"/>
		<path class="st3" d="M403.5,248.4c2.5,0,4.5,2,4.5,4.5l0,0c0,2.5-2,4.5-4.5,4.5h-25c-2.5,0-4.5-2-4.5-4.5l0,0c0-2.5,2-4.5,4.5-4.5
			H403.5z"/>
		<path class="st2" d="M261.8,133.5c0,2.5-2,4.5-4.5,4.5l0,0c-2.5,0-4.5-2-4.5-4.5v-25c0-2.5,2-4.5,4.5-4.5l0,0c2.5,0,4.5,2,4.5,4.5
			V133.5z"/>
		<path class="st3" d="M257.4,104v34c2.5,0,4.4-2,4.4-4.5v-25C261.8,106,259.9,104,257.4,104z"/>
		<path class="st8" d="M324,332.2l-65.7-76l-4.5,3.9l65.7,76c1.1,1.3,3,1.4,4.2,0.3C325,335.3,325.1,333.4,324,332.2z"/>
		<circle class="st7" cx="257.4" cy="253.5" r="15.5"/>
		<path class="st7" d="M364,249.9H263.5v6H364c1.7,0,3-1.3,3-3S365.6,249.9,364,249.9z"/>
		<path class="st7" d="M263.8,249.7c0,3.6-2.9,6.5-6.5,6.5l0,0c-3.6,0-6.5-2.9-6.5-6.5v-96.3c0-3.6,2.9-6.5,6.5-6.5l0,0
			c3.6,0,6.5,2.9,6.5,6.5V249.7z"/>
		<path class="st3" d="M267.9,253.5c0,5.8-4.7,10.5-10.5,10.5c-5.8,0-10.5-4.7-10.5-10.5s4.7-10.5,10.5-10.5
			C263.2,243,267.9,247.7,267.9,253.5z"/>
	</g>
</g>
</svg>
