<svg id="Layer_1" data-name="Layer 1"
  xmlns="http://www.w3.org/2000/svg"
  xmlns:xlink="http://www.w3.org/1999/xlink" viewBox="0 0 158 158">
  <defs>
    <clipPath id="clip-path">
      <circle id="clip_mask" data-name="clip mask" cx="79" cy="79" r="79" style="fill:none"/>
    </clipPath>
  </defs>
  <g style="clip-path:url(#clip-path)">
    <circle id="earth_base" data-name="earth base" cx="79" cy="79" r="79" style="fill:#4294fe"/>
    <path d="M-14.13,45.31c4,4.92-12.37,2.85-20.34,20.55-3.62-7.74-20.6,1.55-10.71,5.12,2.58-3.18,7-1.23,4.54,2.8-5.52,4-16.19,2.85-17.08-5.22-3.65-.47-5.18-3.87-5.88-6.91-7.31-7.71,1.94-14.59,2-21.29,2.78-14.32-25.07,6.42-16.92-7.17,8.2-13.37,29.52-9.39,43.36-6.52,4.37-.86,8.63.65,12.06-2.64,12.23,2,.81,7.48-4.7,10.21,5.5,13.49,8.84-16.71,22.41,4.88C-3.64,44.45-12.62,42.11-14.13,45.31Zm156,59.76c-1.51-8.64-2.52-3.23-6.53-3.29-5-2.34-2.49-5.2-10.17-1.19a102.88,102.88,0,0,0-13,8.64c-2.74,13.8,1.32,11,12.44,8.64,3.38,1.31,5.42,4.89,8.75,6.27C142.27,123.83,149.23,112,141.86,105.07ZM154,40.86c-1.49,5.7-9.21-2.48-8.18-6.11-2.29,1.31-5.55,1.2-8.42,1.65-2.65.7,11.22,8.49,3.4,14.11-3.51,7.25-7.14,4.21-5.79,7.17,4.12,7.69-1.78,10.15-6.83,13.92a10.07,10.07,0,0,1-4.52,9.73c-1.8.94-2.43-2.39-4.71-1.34-2.62-3.77-11.5-10.64-14.21-3-3.12,14.75-7.68-.32-11.9-5-2.81-4.73-7.79-6.15-7.47.85-5.18,5-11.83,4.16-16.19-1.67-12.27-8.17-2.57-17-21.67-15.93-5.67-10.67-24,6.47-21.06-5.92,0-3.4,6.41-.34,4.7-3-1.2-.38-1.06-3.26.4-3.58,10.26-2.7,1.69-16,20.94-18.77C67.9,29.7,79.13,22,94.24,19.34c18.91,7.51,50.24-2.55,63.48,12C155.67,35.82,152,34.68,154,40.86ZM87.1,57.64c-2.65,2.42,1.43,3.24,2.66.81C92.09,55.9,88.46,56.11,87.1,57.64ZM78.69,79.17c-3.45-.54-7.27-2-9.47-5.14,0,0,0,0,0,0-4.6-7.66-15.73-2.62-13.43-13.53-1.22-5.35-6.63-.29-9.75-2.68C43.8,55,42.5,53,38.4,54.59c-16.31-1.79-28.72,23.74-13,32.15,5.17.87,11.75-3.46,14.46,2.45,5.08,6.33,1.56,13.91,3.63,20.74,1.78,14.77,14,20.61,20.54,4.71,3.89-11,6.47-6.81,5.62-20C72.22,89.34,79.88,85.66,78.69,79.17ZM3.61,94.42c-15.24-6.26-39.13-33.89-41.21.12,4.1,12.22,13.93,15.93,11.49,31.18,2.57,11.85,10,25.47,11.2,4C-8.17,118.28,5.58,108.66,3.61,94.42ZM3.12,24.54c.65,2.7-3.46,5.45-.8,8.13C5.68,36.46,7.71,29.91,11,29.4c5.57-1.12,9.09-3.67,13-7,11.46-10.2-13.45-4.57-20-5.9C-7.75,23-3.68,16.69,3.12,24.54ZM-242.44,39.12c-13.57-21.59-16.91,8.61-22.41-4.88,5.51-2.73,16.93-8.23,4.7-10.21-3.43,3.29-7.69,1.78-12.06,2.64-13.84-2.87-35.16-6.85-43.36,6.52-8.15,13.59,19.7-7.15,16.92,7.17,0,6.7-9.26,13.58-2,21.29.7,3,2.23,6.44,5.88,6.91.89,8.07,11.56,9.25,17.08,5.22,2.45-4-2-6-4.54-2.8-9.89-3.57,7.09-12.86,10.71-5.12,8-17.7,24.35-15.63,20.34-20.55C-249.62,42.11-240.64,44.45-242.44,39.12Zm147.3,65.95c-1.51-8.64-2.52-3.23-6.53-3.29-5-2.34-2.49-5.2-10.17-1.19a102.88,102.88,0,0,0-13,8.64c-2.74,13.8,1.32,11,12.44,8.64,3.38,1.31,5.42,4.89,8.75,6.27C-94.73,123.83-87.77,112-95.14,105.07ZM-83,40.86c-1.49,5.7-9.21-2.48-8.18-6.11-2.29,1.31-5.55,1.2-8.42,1.65-2.65.7,11.22,8.49,3.4,14.11-3.51,7.25-7.14,4.21-5.79,7.17,4.12,7.69-1.78,10.15-6.83,13.92a10.07,10.07,0,0,1-4.52,9.73c-1.8.94-2.43-2.39-4.71-1.34-2.62-3.77-11.5-10.64-14.21-3-3.12,14.75-7.68-.32-11.9-5-2.81-4.73-7.79-6.15-7.47.85-5.18,5-11.83,4.16-16.19-1.67-12.27-8.17-2.57-17-21.67-15.93-5.67-10.67-24,6.47-21.06-5.92,0-3.4,6.41-.34,4.7-3-1.2-.38-1.06-3.26.4-3.58,10.26-2.7,1.69-16,20.94-18.77,15.41,5.82,26.64-1.86,41.75-4.54,18.91,7.51,50.24-2.55,63.48,12C-81.33,35.82-85,34.68-83,40.86Zm-66.9,16.78c-2.65,2.42,1.43,3.24,2.66.81C-144.91,55.9-148.54,56.11-149.9,57.64Zm-8.41,21.53c-3.45-.54-7.27-2-9.47-5.14,0,0,0,0,0,0-4.6-7.66-15.73-2.62-13.43-13.53-1.22-5.35-6.63-.29-9.75-2.68C-193.2,55-194.5,53-198.6,54.59c-16.31-1.79-28.72,23.74-13,32.15,5.17.87,11.75-3.46,14.46,2.45,5.08,6.33,1.56,13.91,3.63,20.74,1.78,14.77,14,20.61,20.54,4.71,3.89-11,6.47-6.81,5.62-20C-164.78,89.34-157.12,85.66-158.31,79.17Zm-75.08,15.25c-15.24-6.26-39.13-33.89-41.21.12,4.1,12.22,13.93,15.93,11.49,31.18,2.57,11.85,10,25.47,11.2,4C-245.17,118.28-231.42,108.66-233.39,94.42Zm-.49-69.88c.65,2.7-3.46,5.45-.8,8.13,3.36,3.79,5.39-2.76,8.63-3.27,5.57-1.12,9.09-3.67,13-7,11.46-10.2-13.45-4.57-20-5.9C-244.75,23-240.68,16.69-233.88,24.54Z" style="fill:#43d8aa">
      <animateTransform attributeName="transform" attributeType="XML" type="translate" from="0" to="237" dur="15s" repeatCount="indefinite"/>
    </path>
    <path id="skies" d="M39.33,114.34l11.88,5.23a7.45,7.45,0,0,1,3.35,10.7l-3.37,5.51A5.88,5.88,0,0,1,43,137.64a.16.16,0,0,0-.12,0h0a2.23,2.23,0,0,0-1.78,2.26h0a11.06,11.06,0,0,0,0,1.91,2.57,2.57,0,0,1-4.38,1.85l-5.53-10a5.67,5.67,0,0,0-8.31-1.83l-2.55,1.87a6.12,6.12,0,0,1-6.18-8.81l1.23-2.46a10.11,10.11,0,0,1,5.22-4.86l8.1-3.33A13.69,13.69,0,0,1,39.33,114.34Zm5.82-79.25L33,36a1.42,1.42,0,0,0-.13,2.81L46.32,41a54,54,0,0,1,14.31,4.48l5.95,2.81a11.72,11.72,0,0,0,12-1.2h0A18.29,18.29,0,0,1,96.89,45l1.21.53a6.48,6.48,0,0,0,7.25-1.4l3.78-3.86a2.66,2.66,0,0,0-2-4.52L68.21,37.32A26.9,26.9,0,0,1,62.54,37L53.89,35.5A37.05,37.05,0,0,0,45.15,35.09ZM123,43.28v4.66a3.86,3.86,0,0,0,2.64,3.66l2.57.85A3.5,3.5,0,0,0,132,51.39l.1-.12a1.63,1.63,0,0,0-1-2.68l-.55-.07a2.93,2.93,0,0,1-2.44-2.25l-.81-3.69a2,2,0,0,0-2-1.58h0A2.28,2.28,0,0,0,123,43.28Zm34.23,50.39-9.07-5.26a6.88,6.88,0,0,0-7.86.67l-10,8.36a1.21,1.21,0,0,0,1.09,2.1l2-.54a6.82,6.82,0,0,1,6.43,1.57l1.29,1.2a2.82,2.82,0,0,0,3.85,0l2.43-2.27a12.17,12.17,0,0,1,6.22-3.1l3.28-.56A1.16,1.16,0,0,0,157.23,93.67ZM31.81,7.15,30.22,9.49a6.16,6.16,0,0,1-4.33,2.65l-3.1.39A6.16,6.16,0,0,0,19,22.79h0a6.16,6.16,0,0,0,5,2l19-1.33a6.17,6.17,0,0,0,5.61-7.37l-.25-1.26a6.2,6.2,0,0,0-1.69-3.15L41.26,6.26A6.17,6.17,0,0,0,31.81,7.15Zm68.31,4.25-5.4,2.45a1.47,1.47,0,0,0,.43,2.8l5.18.64a1.45,1.45,0,0,0,1.17-.37l1.8-1.65a1.46,1.46,0,0,0,0-2.16l-1.58-1.45A1.48,1.48,0,0,0,100.12,11.4ZM100.05,128l-7.79,2.05A3.62,3.62,0,0,0,91,136.5l4.27,3.21a2.11,2.11,0,0,1,.4,3l-3.58,4.6a2.11,2.11,0,0,0,1.25,3.37l5.53,1.11a6.16,6.16,0,0,0,7.26-4.92l1.13-6.11a2.12,2.12,0,0,1,3.35-1.3h0a2.11,2.11,0,0,0,3.38-1.68v-4.34a2.12,2.12,0,0,0-2.41-2.09l-3.2.46a2.11,2.11,0,0,1-2.11-1l-.18-.3A5.44,5.44,0,0,0,100.05,128ZM96.4,89.66,84.17,82.31A3,3,0,0,1,83,78.65l.49-1.18a4.45,4.45,0,0,0-3-6L69.67,68.59a8.66,8.66,0,0,0-10.84,7.35l-.29,2.45a7.41,7.41,0,0,1-4.93,6.13L48.45,86.3a16,16,0,0,1-15.51-2.84l-8-6.7a4.42,4.42,0,0,1-1.32-1.87l-3-8.11a4.44,4.44,0,0,0-8-.75L9.85,70.59a4.47,4.47,0,0,0-.58,3l.75,4.5a4.45,4.45,0,0,1-4.94,5.14l-6.44-.8a14.26,14.26,0,0,0-7,.9l-8.5,3.4a4.45,4.45,0,0,0-.72,7.89l6.33,4A13.23,13.23,0,0,0-.06,100l3.73-1.24a12.55,12.55,0,0,1,10.21,1l5.39,3.08a12.18,12.18,0,0,0,8,1.46l18-2.82A35.13,35.13,0,0,0,52,99.74l10.66-4a15,15,0,0,1,14.78,2.49l2.25,1.86a9.78,9.78,0,0,0,12.09.28l5-3.71A4.24,4.24,0,0,0,96.4,89.66ZM-22.21,32.9l-2.18.61a9.09,9.09,0,0,0-6.47,6.9l-.67,3.16A3.48,3.48,0,0,0-29,47.65l4.93,1.3a3.46,3.46,0,0,1,2.41,2.23h0A3.47,3.47,0,0,0-15,50.66l1.28-7.13a3.48,3.48,0,0,0-.48-2.46l-4.17-6.66A3.48,3.48,0,0,0-22.21,32.9Zm-19.12,85.81-2.28,2a10.58,10.58,0,0,0-1.68,14.23l7.06,9.75a3.26,3.26,0,0,0,5.86-2.47h0a3.27,3.27,0,0,1,1.65-3.41l1.57-.86a3.26,3.26,0,0,0,.43-5.45l-5-3.82a3.27,3.27,0,0,1-1.22-2l-1.08-6A3.27,3.27,0,0,0-41.33,118.71Zm-136-4.49-8.1,3.33a10.11,10.11,0,0,0-5.22,4.86l-1.23,2.46a6.12,6.12,0,0,0,6.18,8.81l2.55-1.87a5.67,5.67,0,0,1,8.31,1.83l5.53,10a2.57,2.57,0,0,0,4.38-1.85,11.06,11.06,0,0,1,0-1.91h0a2.23,2.23,0,0,1,1.78-2.26h0a.16.16,0,0,1,.12,0,5.88,5.88,0,0,0,8.23-1.86l3.37-5.51a7.45,7.45,0,0,0-3.35-10.7l-11.88-5.23A13.69,13.69,0,0,0-177.38,114.22Zm16.53-79.13L-173,36a1.42,1.42,0,0,0-.13,2.81L-159.68,41a54,54,0,0,1,14.31,4.48l6,2.81a11.72,11.72,0,0,0,12-1.2h0A18.29,18.29,0,0,1-109.11,45l1.21.53a6.48,6.48,0,0,0,7.25-1.4l3.78-3.86a2.66,2.66,0,0,0-2-4.52l-38.91,1.56a26.9,26.9,0,0,1-5.67-.36l-8.65-1.46A37.05,37.05,0,0,0-160.85,35.09ZM-83,43.28v4.66a3.86,3.86,0,0,0,2.64,3.66l2.57.85A3.5,3.5,0,0,0-74,51.39l.1-.12a1.63,1.63,0,0,0-1-2.68l-.55-.07a2.93,2.93,0,0,1-2.44-2.25l-.81-3.69a2,2,0,0,0-2-1.58h0A2.28,2.28,0,0,0-83,43.28Zm34.23,50.39-9.07-5.26a6.88,6.88,0,0,0-7.86.67l-10,8.36a1.21,1.21,0,0,0,1.09,2.1l2-.54a6.82,6.82,0,0,1,6.43,1.57l1.29,1.2a2.82,2.82,0,0,0,3.85,0l2.43-2.27a12.17,12.17,0,0,1,6.22-3.1l3.28-.56A1.16,1.16,0,0,0-48.77,93.67ZM-174.19,7.15l-1.59,2.34a6.16,6.16,0,0,1-4.33,2.65l-3.1.39A6.16,6.16,0,0,0-187,22.79h0a6.16,6.16,0,0,0,5,2l19-1.33a6.17,6.17,0,0,0,5.61-7.37l-.25-1.26a6.2,6.2,0,0,0-1.69-3.15l-5.42-5.42A6.17,6.17,0,0,0-174.19,7.15Zm68.31,4.25-5.4,2.45a1.47,1.47,0,0,0,.43,2.8l5.18.64a1.45,1.45,0,0,0,1.17-.37l1.8-1.65a1.45,1.45,0,0,0,0-2.16l-1.58-1.45A1.48,1.48,0,0,0-105.88,11.4ZM-105.95,128l-7.79,2.05A3.62,3.62,0,0,0-115,136.5l4.27,3.21a2.11,2.11,0,0,1,.4,3l-3.58,4.6a2.11,2.11,0,0,0,1.25,3.37l5.53,1.11a6.16,6.16,0,0,0,7.26-4.92l1.13-6.11a2.12,2.12,0,0,1,3.35-1.3h0A2.11,2.11,0,0,0-92,137.77v-4.34a2.12,2.12,0,0,0-2.41-2.09l-3.2.46a2.11,2.11,0,0,1-2.11-1l-.18-.3A5.44,5.44,0,0,0-105.95,128Zm-3.65-38.38-12.23-7.35A3,3,0,0,1-123,78.65l.49-1.18a4.45,4.45,0,0,0-3-6l-10.82-2.89a8.66,8.66,0,0,0-10.84,7.35l-.29,2.45a7.41,7.41,0,0,1-4.93,6.13l-5.16,1.78a16,16,0,0,1-15.51-2.84l-8-6.7a4.42,4.42,0,0,1-1.32-1.87l-3-8.11a4.44,4.44,0,0,0-8-.75l-2.76,4.56a4.47,4.47,0,0,0-.58,3l.75,4.5a4.45,4.45,0,0,1-4.94,5.14l-6.44-.8a14.26,14.26,0,0,0-7,.9l-8.5,3.4a4.45,4.45,0,0,0-.72,7.89l6.33,4A13.23,13.23,0,0,0-206.06,100l3.73-1.24a12.55,12.55,0,0,1,10.21,1l5.39,3.08a12.18,12.18,0,0,0,8,1.46l18-2.82A35.13,35.13,0,0,0-154,99.74l10.66-4a15,15,0,0,1,14.78,2.49l2.25,1.86a9.78,9.78,0,0,0,12.09.28l5-3.71A4.24,4.24,0,0,0-109.6,89.66ZM-228.21,32.9l-2.18.61a9.09,9.09,0,0,0-6.47,6.9l-.67,3.16A3.48,3.48,0,0,0-235,47.65l4.93,1.3a3.46,3.46,0,0,1,2.41,2.23h0a3.47,3.47,0,0,0,6.71-.52l1.28-7.13a3.48,3.48,0,0,0-.48-2.46l-4.17-6.66A3.48,3.48,0,0,0-228.21,32.9Zm-19.12,85.81-2.28,2a10.58,10.58,0,0,0-1.68,14.23l7.06,9.75a3.26,3.26,0,0,0,5.86-2.47h0a3.27,3.27,0,0,1,1.65-3.41l1.57-.86a3.26,3.26,0,0,0,.43-5.45l-5-3.82a3.27,3.27,0,0,1-1.22-2l-1.08-6A3.27,3.27,0,0,0-247.33,118.71Z" style="fill:#e6ebfc">
      <animateTransform attributeName="transform" attributeType="XML" type="translate" from="0" to="206" dur="6s" repeatCount="indefinite"/>
    </path>
  </g>
</svg>