<svg id="Layer_1" data-name="Layer 1" xmlns="http://www.w3.org/2000/svg" viewBox="0 0 408 316"><polygon points="208 316 200 316 196 244 212 244 208 316" style="fill:#ccc"/><rect x="272" y="152" width="28" height="12" style="fill:#e6e6e6"/><path d="M276,72V232a16,16,0,0,1-16,16H148a16,16,0,0,1-16-16V72Z" style="fill:#e6e6e6"/><path d="M260,72V232a16,16,0,0,1-16,16h16a16,16,0,0,0,16-16V72Z" style="fill:#ccc"/><path d="M132,72a72,72,0,0,1,144,0Z" style="fill:#cc584c"/><path d="M204,0a72.82,72.82,0,0,0-8,.47A72,72,0,0,1,260,72h16A72,72,0,0,0,204,0Z" style="fill:#bf5347"/><path d="M204,207.5A53.5,53.5,0,1,1,257.5,154,53.56,53.56,0,0,1,204,207.5Z" style="fill:#263740"/><circle cx="204" cy="154" r="42.8" style="fill:#96e6d9"/><rect x="108" y="152" width="28" height="12" style="fill:#e6e6e6"/><path d="M168,296a36,36,0,0,1,72,0Z" style="fill:#ccc"/><path d="M204,260a33.17,33.17,0,0,0-4,.24A36,36,0,0,1,232,296h8A36,36,0,0,0,204,260Z" style="fill:#b3b3b3"/><path d="M296,200a16,16,0,0,0,16,16h80a16,16,0,0,0,16-16V112a16,16,0,0,0-16-16H312a16,16,0,0,0-16,16Z" style="fill:#f5f5f5"/><rect x="368" y="112" width="24" height="24" style="fill:#b3b3b3"/><rect x="340" y="112" width="24" height="24" style="fill:#b3b3b3"/><rect x="312" y="112" width="24" height="24" style="fill:#b3b3b3"/><rect x="368" y="144" width="24" height="24" style="fill:#b3b3b3"/><rect x="340" y="144" width="24" height="24" style="fill:#b3b3b3"/><rect x="312" y="144" width="24" height="24" style="fill:#b3b3b3"/><rect x="368" y="176" width="24" height="24" style="fill:#b3b3b3"/><rect x="340" y="176" width="24" height="24" style="fill:#b3b3b3"/><rect x="312" y="176" width="24" height="24" style="fill:#b3b3b3"/><path d="M112,200a16,16,0,0,1-16,16H16A16,16,0,0,1,0,200V112A16,16,0,0,1,16,96H96a16,16,0,0,1,16,16Z" style="fill:#f5f5f5"/><rect x="16" y="112" width="24" height="24" style="fill:#b3b3b3"/><rect x="44" y="112" width="24" height="24" style="fill:#b3b3b3"/><rect x="72" y="112" width="24" height="24" style="fill:#b3b3b3"/><rect x="16" y="144" width="24" height="24" style="fill:#b3b3b3"/><rect x="44" y="144" width="24" height="24" style="fill:#b3b3b3"/><rect x="72" y="144" width="24" height="24" style="fill:#b3b3b3"/><rect x="16" y="176" width="24" height="24" style="fill:#b3b3b3"/><rect x="44" y="176" width="24" height="24" style="fill:#b3b3b3"/><rect x="72" y="176" width="24" height="24" style="fill:#b3b3b3"/><rect x="132" y="72" width="144" height="4" style="fill:#ccc"/></svg>