<svg id="Layer_1" data-name="Layer 1"
  xmlns="http://www.w3.org/2000/svg" viewBox="0 0 110 535.53">
  <defs>
    <style>.cls-1{fill:#fc8a17;}.cls-2{fill:#fcab59;}.cls-3{fill:#fee3c8;}.cls-4{fill:none;}.cls-5{fill:#ff4f19;}.cls-6{fill:#e5001e;}.cls-7{fill:#5c546a;}.cls-8{fill:#888693;}.cls-9{fill:#b6b8be;}.cls-10{fill:#d5d9de;}.cls-11{fill:#e3e6e9;}</style>
  </defs>
  <g id="flame_main" data-name="flame main">
    <ellipse class="cls-1" cx="54.87" cy="275.58" rx="18" ry="243.95"/>
    <ellipse class="cls-2" cx="54.87" cy="267.58" rx="14" ry="189.74"/>
    <ellipse class="cls-3" cx="54.87" cy="248.58" rx="9.5" ry="128.75"/>

    <animateTransform attributeName="transform" type="scale" values="1 1; 1 1.03; 1 1" dur="0.15s" repeatCount="indefinite"/>
  </g>
  <g id="flame">
    <ellipse class="cls-1" cx="18.87" cy="250.9" rx="7" ry="112.19"/>
    <ellipse class="cls-2" cx="18.87" cy="247.22" rx="5.44" ry="87.26"/>
    <ellipse class="cls-3" cx="18.87" cy="238.48" rx="3.69" ry="59.21"/>

    <animateTransform attributeName="transform" type="scale" values="1 1; 1 1.03; 1 1" dur="0.15s" repeatCount="indefinite" begin="0.2s"/>
  </g>
  <g id="flame-2" data-name="flame">
    <ellipse class="cls-1" cx="90.87" cy="250.9" rx="7" ry="112.19"/>
    <ellipse class="cls-2" cx="90.87" cy="247.22" rx="5.44" ry="87.26"/>
    <ellipse class="cls-3" cx="90.87" cy="238.48" rx="3.69" ry="59.21"/>

    <animateTransform attributeName="transform" type="scale" values="1 1; 1 1.03; 1 1" dur="0.15s" repeatCount="indefinite" begin="0.1s"/>
  </g>
  <g id="shuttle">
    <path class="cls-4" d="M64.37,80.9l0,0S64.4,80.9,64.37,80.9Z"/>
    <path class="cls-5" d="M79.39,55a13.07,13.07,0,0,1,4.71-4.72C83.37,16.16,57.72,1.06,56.61.43A3.21,3.21,0,0,0,55,0V55Z"/>
    <path class="cls-6" d="M30.61,55H55V0a3.19,3.19,0,0,0-1.61.43c-1.11.63-26.76,15.73-27.49,49.85A13.07,13.07,0,0,1,30.61,55Z"/>
    <path class="cls-7" d="M55,61.47V55H30.61a12.81,12.81,0,0,1,1.74,6.47v44l.17-.17,6.3-6.3V77.65A16.2,16.2,0,0,1,55,61.47Z"/>
    <path class="cls-8" d="M90.59,137.77a1.29,1.29,0,0,0,.16.17l12.61,12.62.17.17V67.94H90.59v69.83Z"/>
    <path class="cls-9" d="M103.53,67.94V61.47A13,13,0,0,0,90.59,48.53V67.94Z"/>
    <path class="cls-8" d="M19.41,67.94v69.83a22.5,22.5,0,0,0,6.47-15.84v-.65a22.5,22.5,0,0,1,6.47-15.85V67.94Z"/>
    <path class="cls-7" d="M19.25,137.94a1.29,1.29,0,0,0,.16-.17V67.94H6.47v82.79l.16-.17Z"/>
    <path class="cls-7" d="M77.65,67.94v37.49a22.5,22.5,0,0,1,6.47,15.85v.65a22.5,22.5,0,0,0,6.47,15.84V67.94Z"/>
    <path class="cls-9" d="M32.35,67.94V61.47A12.81,12.81,0,0,0,30.61,55a13.07,13.07,0,0,0-4.71-4.72,12.86,12.86,0,0,0-6.49-1.75V67.94Z"/>
    <path class="cls-7" d="M9.8,198.14a3.24,3.24,0,0,0,3.14,2.45H25.88A3.23,3.23,0,0,0,29,198.14l2.62-10.49H7.18Z"/>
    <path class="cls-7" d="M81,198.14a3.23,3.23,0,0,0,3.14,2.45H97.06a3.24,3.24,0,0,0,3.14-2.45l2.62-10.49H78.36Z"/>
    <path class="cls-10" d="M35.6,168.24a3.23,3.23,0,0,1,3.22-3h0V99l-6.3,6.31-.17.17a22.5,22.5,0,0,0-6.47,15.85v.65a22.5,22.5,0,0,1-6.47,15.84,1.29,1.29,0,0,1-.16.17L6.63,150.55l-.16.18A22.48,22.48,0,0,0,0,166.57v4.9H35.3Z"/>
    <path class="cls-5" d="M0,171.47v12.94a3.24,3.24,0,0,0,3.24,3.24H33.82l1.48-16.18Z"/>
    <path class="cls-10" d="M103.53,150.73l-.17-.17L90.75,137.94a1.29,1.29,0,0,1-.16-.17,22.5,22.5,0,0,1-6.47-15.84v-.65a22.5,22.5,0,0,0-6.47-15.85l-.17-.17L71.18,99v66.29h0a3.23,3.23,0,0,1,3.22,3l.3,3.23H110v-4.9A22.48,22.48,0,0,0,103.53,150.73Z"/>
    <path class="cls-5" d="M76.18,187.65h30.58a3.24,3.24,0,0,0,3.24-3.24V171.47H74.7Z"/>
    <path class="cls-11" d="M55,61.47A16.2,16.2,0,0,0,38.82,77.65v87.6h6.47V82.39a3.32,3.32,0,0,1,.34-1.49,3.23,3.23,0,0,1,1.57-1.52,18.5,18.5,0,0,1,15.6,0,3.23,3.23,0,0,1,1.57,1.52s0,0,0,0a3.46,3.46,0,0,1,.32,1.46v82.86h6.47V77.65A16.2,16.2,0,0,0,55,61.47Z"/>
    <path class="cls-10" d="M64.71,82.41a3.3,3.3,0,0,1-.29,1.25,3.25,3.25,0,0,1-3,1.91,3.29,3.29,0,0,1-1.33-.29,12,12,0,0,0-10.28,0,3.24,3.24,0,0,1-4.28-1.62,3.3,3.3,0,0,1-.29-1.25v82.84h6.47V148.82a3.24,3.24,0,0,1,6.48,0v16.43h6.47V82.41Z"/>
    <path class="cls-9" d="M74.4,168.24a3.23,3.23,0,0,0-3.22-3H58.24v25.63H76.48l-.3-3.23L74.7,171.47Z"/>
    <path class="cls-8" d="M51.76,165.25H38.82a3.23,3.23,0,0,0-3.22,3l-.3,3.23-1.48,16.18-.3,3.23H51.76V165.25Z"/>
    <path class="cls-7" d="M49.86,85.28a12,12,0,0,1,10.28,0,3.32,3.32,0,0,0,1.33.29,3.25,3.25,0,0,0,3-1.91,3.3,3.3,0,0,0,.29-1.25v0a3.46,3.46,0,0,0-.32-1.46l0,0a3.23,3.23,0,0,0-1.57-1.52,18.5,18.5,0,0,0-15.6,0,3.23,3.23,0,0,0-1.57,1.52,3.32,3.32,0,0,0-.34,1.49v0a3.3,3.3,0,0,0,.29,1.25A3.24,3.24,0,0,0,49.86,85.28Z"/>
    <path class="cls-8" d="M79.39,55H55v6.47A16.2,16.2,0,0,1,71.18,77.65V99l6.3,6.3.17.17V67.94H90.59V48.53a12.86,12.86,0,0,0-6.49,1.75A13.07,13.07,0,0,0,79.39,55Z"/>
    <path class="cls-8" d="M19.41,48.53A13,13,0,0,0,6.47,61.47v6.47H19.41Z"/>
    <path class="cls-8" d="M58.24,194.12A3.24,3.24,0,0,1,55,197.35v9.71H74.41a3.25,3.25,0,0,0,3.23-3.49l-1.16-12.69H58.23v3.24Z"/>
    <path class="cls-7" d="M51.76,194.12v-3.24H33.52l-1.16,12.7a3.25,3.25,0,0,0,3.23,3.48H55v-9.71A3.24,3.24,0,0,1,51.76,194.12Z"/>
    <path class="cls-6" d="M55,145.59a3.24,3.24,0,0,0-3.24,3.23v45.3a3.24,3.24,0,0,0,6.48,0v-45.3A3.24,3.24,0,0,0,55,145.59Z"/>
  </g>
</svg>