<svg data-name="Layer 1" xmlns="http://www.w3.org/2000/svg" viewBox="0 0 175.52 169.83"><path d="m98.31 8.49 17.19 34.83a12.53 12.53 0 0 0 9.44 6.86l38.43 5.58a12.54 12.54 0 0 1 6.95 21.4l-27.81 27.1a12.55 12.55 0 0 0-3.6 11.1l6.56 38.28a12.54 12.54 0 0 1-18.2 13.22L92.9 148.79a12.56 12.56 0 0 0-11.68 0l-34.37 18.07a12.54 12.54 0 0 1-18.2-13.22l6.57-38.28a12.53 12.53 0 0 0-3.61-11.1L3.8 77.16a12.55 12.55 0 0 1 7-21.4l38.43-5.58a12.57 12.57 0 0 0 9.45-6.86L75.81 8.49a12.55 12.55 0 0 1 22.5 0Z" style="fill:#FEC107"/><path d="M86.06 2.5a12.4 12.4 0 0 1 11.25 7l17.19 34.82a12.53 12.53 0 0 0 9.44 6.86l38.43 5.58A12.48 12.48 0 0 1 173 67.64" style="fill:none;stroke:#fbd870;stroke-linecap:round;stroke-miterlimit:10;stroke-width:5px"/><path data-name="Light" d="M5.28 60.71a12.53 12.53 0 0 1 6.47-3l38.43-5.58a11.66 11.66 0 0 0 1.82-.37M137.91 115.36l6.56 38.28a12.31 12.31 0 0 1-1.85 9" style="fill:none;stroke:#fbd870;stroke-linecap:round;stroke-miterlimit:10;stroke-width:5px"/><path d="M59.63 44.32 76.81 9.49" style="fill:none;stroke:#b78b06;stroke-linecap:round;stroke-miterlimit:10;stroke-width:5px"/><path data-name="Shadows" d="M127.27 165.86 92.9 147.79a12.56 12.56 0 0 0-11.68 0l-34.37 18.07a12.54 12.54 0 0 1-18.2-13.22l6.57-38.28a12.53 12.53 0 0 0-3.61-11.1L3.8 76.16M169.32 76.16l-27.81 27.1" style="fill:none;stroke:#b78b06;stroke-linecap:round;stroke-miterlimit:10;stroke-width:5px"/></svg>