<svg xmlns="http://www.w3.org/2000/svg" viewBox="0 0 512 512" style="enable-background:new 0 0 512 512" xml:space="preserve"><circle style="fill:#ffc91b" cx="256" cy="256" r="256"/><path style="fill:#eaa22f" d="m507.454 304.176-155.486-156.51-4.206 6.409-49.528 2.586V177.561l-59.402 1.939-29.089-29.091-33.113 5.961-1.939-1.939-32.468 1.357 31.534 32.332-84.687 79.155-5.141 47.306 195.424 196.346c114.346-10.341 206.981-95.861 228.101-206.751z"/><circle style="fill:#ffedb5" cx="137.051" cy="264.189" r="66.37"/><circle style="fill:#fee187" cx="364.606" cy="264.189" r="66.37"/><path style="fill:#386895" d="M364.606 190.923a72.814 72.814 0 0 0-31.501 7.13l-30.56-40.746h43.098a6.897 6.897 0 0 0 0-13.792h-56.889a6.897 6.897 0 0 0-6.168 3.812 6.898 6.898 0 0 0 .652 7.221l13.059 17.411H181.872v-14.653h21.549a6.897 6.897 0 0 0 0-13.792h-56.889a6.897 6.897 0 0 0 0 13.792h21.549v20.43l-5.879 17.636a72.93 72.93 0 0 0-25.152-4.448c-40.4 0-73.266 32.866-73.266 73.266s32.866 73.266 73.266 73.266c38.072 0 69.444-29.194 72.932-66.37h43.432v14.653h-21.549a6.897 6.897 0 0 0 0 13.792h28.444a6.897 6.897 0 0 0 6.896-6.896v-21.549h24.469c3.487 37.176 34.859 66.37 72.932 66.37 40.4 0 73.266-32.866 73.266-73.266s-32.868-73.267-73.266-73.267zm-227.555 132.74c-32.794 0-59.475-26.681-59.475-59.475s26.681-59.475 59.475-59.475a59.17 59.17 0 0 1 20.785 3.756L139.99 262.01a6.895 6.895 0 0 0 6.542 9.076h49.581c-3.43 29.555-28.601 52.577-59.062 52.577zm33.192-108.802c14.041 9.48 23.823 24.793 25.871 42.432H156.1l14.143-42.432zm90.067 13.987a6.897 6.897 0 0 0-6.896 6.896v21.549h-43.432c-2.226-23.728-15.808-44.199-35.247-55.908l5.211-15.634H306.64l14.583 19.444c-16.365 12.067-27.546 30.765-29.548 52.098h-24.469v-21.549a6.897 6.897 0 0 0-6.896-6.896zm69.184-12.624 30.803 41.069h-54.753c1.952-16.822 10.943-31.522 23.95-41.069zm35.112 107.439c-30.461 0-55.632-23.023-59.063-52.579h68.544a6.897 6.897 0 0 0 6.168-3.812 6.898 6.898 0 0 0-.652-7.221l-38.022-50.697a59.15 59.15 0 0 1 23.024-4.641c32.794 0 59.475 26.681 59.475 59.475s-26.68 59.475-59.474 59.475z"/><path style="fill:#273b7a" d="M364.606 190.923a72.814 72.814 0 0 0-31.501 7.13l-30.56-40.746h43.098a6.897 6.897 0 0 0 0-13.792h-56.889a6.897 6.897 0 0 0-6.168 3.812 6.898 6.898 0 0 0 .652 7.221l13.059 17.411h-41.444v13.791h51.788l14.583 19.444c-16.365 12.067-27.546 30.765-29.548 52.098h-24.469v-21.549a6.897 6.897 0 0 0-6.896-6.896c-2.234 0-4.198 1.079-5.458 2.725v67.955h5.458a6.897 6.897 0 0 0 6.896-6.896v-21.549h24.469c3.487 37.176 34.859 66.37 72.932 66.37 40.4 0 73.266-32.866 73.266-73.266s-32.87-73.263-73.268-73.263zm-35.112 25.301 30.803 41.069h-54.753c1.952-16.822 10.943-31.522 23.95-41.069zm35.112 107.439c-30.461 0-55.632-23.023-59.063-52.579h68.544a6.897 6.897 0 0 0 6.168-3.812 6.898 6.898 0 0 0-.652-7.221l-38.022-50.697a59.15 59.15 0 0 1 23.024-4.641c32.794 0 59.475 26.681 59.475 59.475s-26.68 59.475-59.474 59.475z"/></svg>