<svg xmlns="http://www.w3.org/2000/svg" viewBox="0 0 473.654 473.654" style="enable-background:new 0 0 473.654 473.654" xml:space="preserve"><circle style="fill:#a2d4de" cx="236.827" cy="236.827" r="236.827"/><path style="fill:#5b4f3f" d="M139.673 220.605 103.582 240.9l36.091 20.287c4.992 2.808 7.49 7.857 7.49 15.142 0 4.63-1.081 8.683-3.235 12.154-2.165 3.482-4.839 5.217-8.018 5.217-1.481 0-2.962-.408-4.435-1.238l-63.947-35.945c-6.137-3.47-9.207-8.676-9.207-15.613 0-6.941 3.07-12.15 9.207-15.62l63.947-35.945c1.473-.823 2.954-1.238 4.435-1.238 3.179 0 5.849 1.739 8.018 5.209 2.154 3.478 3.235 7.535 3.235 12.165 0 7.273-2.498 12.318-7.49 15.13zM326.656 205.467c0-4.63 1.081-8.687 3.235-12.165 2.161-3.47 4.835-5.209 8.018-5.209 1.481 0 2.958.415 4.435 1.238l63.947 35.945c6.137 3.47 9.207 8.676 9.207 15.62 0 6.933-3.07 12.142-9.207 15.613l-63.947 35.945c-1.477.83-2.954 1.238-4.435 1.238-3.182 0-5.852-1.735-8.018-5.217-2.154-3.47-3.235-7.524-3.235-12.154 0-7.285 2.494-12.333 7.49-15.142l36.087-20.287-36.087-20.295c-4.996-2.804-7.49-7.849-7.49-15.13zM253.311 312.643c-3.238 7.06-11.593 10.149-18.646 6.911-7.057-3.238-10.149-11.589-6.911-18.646l64.25-139.886c3.235-7.06 11.581-10.149 18.638-6.911 7.064 3.238 10.153 11.593 6.911 18.642l-64.242 139.89z"/></svg>