<?xml version="1.0" encoding="utf-8"?>
<!-- Generator: Adobe Illustrator 24.0.0, SVG Export Plug-In . SVG Version: 6.00 Build 0)  -->
<svg version="1.1" id="Layer_1"
  xmlns="http://www.w3.org/2000/svg"
  xmlns:xlink="http://www.w3.org/1999/xlink" x="0px" y="0px" viewBox="0 0 100 100.1" style="enable-background:new 0 0 100 100.1;" xml:space="preserve">
  <style type="text/css">
	.st0{fill:#FFFFFF;}
  </style>
  <g>
    <path class="st0" d="M79.9,33.6c-0.4,0-0.8,0-1.2,0l0,0c-1.5,0-2.3,0.1-2.4,2.2V70c0.1,2.2,0.9,2.2,2.4,2.2l0,0c0.3,0,0.8,0,1.2,0
		c1.6,0,2.2-1.1,2.3-3.1V36.7C82.2,34.7,81.6,33.6,79.9,33.6L79.9,33.6z"/>
    <path class="st0" d="M32.9,54.8c-0.4,0.2-0.8,0.5-1,0.7c-0.3,0.3-0.5,0.5-0.7,0.8c-0.1,0.2-0.2,0.3-0.3,0.5
		c-0.1,0.2-0.2,0.5-0.2,0.8c-0.1,0.4-0.1,0.8-0.1,1.3v11c0.1,2,0.8,2.2,2.1,2.2c0.4,0,1.1,0,1.6,0c1.7,0,2.5-1.2,2.5-3.3l0,0V52.8
		c-1,0.5-1.9,0.9-2.7,1.3C33.7,54.4,33.2,54.6,32.9,54.8L32.9,54.8z"/>
    <path class="st0" d="M88.9,88.2h-6.7V76c-0.7,1.4-2.2,2.9-4.9,2.9h-0.5v0h-1.3c-0.2,0-0.3,0-0.5,0c-0.2,0-0.5,0-0.8,0
		c-0.3,0-0.7-0.1-1.1-0.2c-0.3-0.1-0.6-0.2-0.9-0.4c-0.4-0.2-0.9-0.5-1.2-0.9c-0.2-0.2-0.4-0.5-0.5-0.7c-0.2-0.3-0.3-0.5-0.4-0.8
		c-0.1-0.3-0.2-0.6-0.3-0.9c-0.1-0.3-0.1-0.6-0.1-1c0-0.4,0-0.7,0-1.1v-40c0-0.4,0-0.9,0.1-1.3c0-0.4,0.1-0.8,0.2-1.3
		c0.1-0.3,0.2-0.6,0.4-0.9c0.2-0.4,0.5-0.8,0.9-1.2c0.2-0.2,0.5-0.4,0.7-0.5c0.3-0.2,0.6-0.3,0.8-0.4c0.3-0.1,0.6-0.2,0.8-0.2
		c0.3-0.1,0.5-0.1,0.8-0.1c0.3,0,0.5,0,0.7,0c0.2,0,0.3,0,0.5,0h1.3v0h0.5c2.8,0,4.3,1.6,5,3.1l0.6-2.5h6V88.2L88.9,88.2z
		 M66.2,47.7h-6.7V34.8c0-0.9-0.7-1.6-1.6-1.6h-2.5c-0.9,0-1.5,0.7-1.6,1.5v35.9c0,0.9,0.7,1.6,1.6,1.6h2.4c0.9,0,1.6-0.7,1.6-1.6
		V57.7h6.7v14.8c0,0.7-0.1,1.3-0.3,1.9c-0.2,0.6-0.5,1.2-0.8,1.7c-0.7,1-1.7,1.8-2.8,2.3c-0.8,0.3-1.6,0.5-2.5,0.5h-6.1
		c-0.7,0-1.3-0.1-1.9-0.3c-0.6-0.2-1.2-0.5-1.7-0.8c-1-0.7-1.8-1.7-2.3-2.8c-0.3-0.8-0.5-1.6-0.5-2.5V32.9c0-0.7,0.1-1.3,0.3-1.9
		c0.2-0.6,0.5-1.2,0.8-1.7c0.7-1,1.7-1.8,2.8-2.3c0.8-0.3,1.6-0.5,2.5-0.5h6.1c0.7,0,1.3,0.1,1.9,0.3c0.6,0.2,1.2,0.5,1.7,0.8
		c1,0.7,1.8,1.6,2.3,2.8c0.3,0.8,0.5,1.6,0.5,2.5V47.7L66.2,47.7z M37.2,78.4c0-0.1,0-0.1,0-0.2c-0.2-0.7-0.3-1.5-0.3-2.3
		c-0.7,1.5-2.1,3-4.8,3h-1v0h-1.8c-0.3,0-0.6,0-0.9,0c-0.3,0-0.7-0.1-1.1-0.2c-0.3-0.1-0.6-0.2-0.9-0.4c-0.4-0.2-0.8-0.5-1.2-0.9
		c-0.2-0.2-0.4-0.4-0.5-0.7c-0.2-0.3-0.3-0.5-0.4-0.8c-0.1-0.3-0.2-0.5-0.2-0.8c-0.1-0.3-0.1-0.6-0.1-0.8c0-0.3-0.1-0.6-0.1-0.9
		c0-0.3,0-0.7,0-1.1V59c0-1.3,0.1-2.4,0.4-3.5c0.3-1.1,0.7-2.1,1.3-2.9c0.4-0.6,0.8-1.1,1.2-1.5c0.6-0.6,1.2-1.1,1.8-1.5
		c0.8-0.5,1.6-1,2.4-1.3c1-0.5,1.9-0.9,2.7-1.3c0.4-0.2,0.8-0.5,1.1-0.7c0.4-0.3,0.6-0.5,0.9-0.8c0.3-0.3,0.5-0.7,0.7-1.3
		c0.2-0.6,0.4-1.5,0.4-2.8V35c0-0.9-0.7-1.6-1.6-1.6h-2.2c-0.9,0-1.6,0.7-1.6,1.6l0,0v9.1h-6.7v-11c0-0.7,0.1-1.3,0.3-1.9
		c0.2-0.6,0.5-1.2,0.8-1.7c0.7-1,1.7-1.8,2.8-2.3c0.8-0.3,1.6-0.5,2.5-0.5h5.9c0.7,0,1.3,0.1,1.9,0.3c0.6,0.2,1.2,0.5,1.7,0.8
		c1,0.7,1.8,1.6,2.3,2.8c0.3,0.8,0.5,1.6,0.5,2.5v41.4c0,1.5,0.2,2.5,0.5,3.1c0.2,0.4,0.3,0.6,0.4,0.8H37.2L37.2,78.4z M22.3,33.6
		h-3.7l0,44.8H12l0-44.8H9.2v-6.7H12l0-9.7c0-0.7,0.1-1.3,0.3-1.9c0.2-0.6,0.5-1.2,0.8-1.7c0.7-1,1.7-1.8,2.8-2.3
		c0.8-0.3,1.6-0.5,2.5-0.5h6.2v6.7h-4.4c-0.9,0-1.5,0.7-1.6,1.5v7.9h3.7V33.6L22.3,33.6z M8.4,0.5C4,0.5,0.5,4.1,0.5,8.4v91.1h91.1
		c4.4,0,7.9-3.5,7.9-7.9V0.5H8.4L8.4,0.5z"/>
  </g>
</svg>
