<svg xmlns="http://www.w3.org/2000/svg" viewBox="0 0 297 297" style="enable-background:new 0 0 297 297" xml:space="preserve"><circle style="fill:#79302a" cx="148.5" cy="148.5" r="148.5"/><path style="fill:#601e1b" d="m293.276 115.326-57.009-57.009L75.066 220.61l76.349 76.353C232.083 295.408 297 229.54 297 148.5a148.97 148.97 0 0 0-3.724-33.174z"/><path style="fill:#f86e51" d="M150.924 194.074c5.217-6.688 20.23-11.275 25.789-16.834 11.795-11.795 4.629-30.128-11.098-45.855s-34.06-22.894-45.855-11.098c-5.559 5.559-10.146 20.572-16.834 25.789-13.729 10.71-29.79 5.878-40.383 16.471-16.383 16.383-8.66 36.884 13.184 58.727s42.345 29.566 58.727 13.184c10.593-10.594 5.76-26.654 16.47-40.384z"/><path style="fill:#dd553e" d="M165.615 131.385c-5.622-5.622-11.577-10.142-17.448-13.101v79.945a32.987 32.987 0 0 1 2.757-4.155c5.217-6.688 20.23-11.275 25.789-16.834 11.796-11.795 4.629-30.128-11.098-45.855z"/><path transform="rotate(-134.999 177.6 119.4)" style="fill:#d5c295" d="M167.712 62.759h19.775v113.279h-19.775z"/><path style="fill:#c1aa7c" d="m210.659 72.358-62.492 62.492v27.966l76.475-76.475z"/><circle style="fill:#32373b" cx="130.958" cy="166.042" r="15.537"/><path style="fill:#32373b" d="m88.336 191.337 17.327 17.327a3.85 3.85 0 0 0 5.445 0l1.946-1.946a3.85 3.85 0 0 0 0-5.445l-17.327-17.327a3.85 3.85 0 0 0-5.445 0l-1.946 1.946a3.851 3.851 0 0 0 0 5.445z"/><path style="fill:#8e725e" d="m199.333 84.757 12.91 12.91a5.808 5.808 0 0 0 8.215 0l23.472-23.472a5.808 5.808 0 0 0 0-8.215l-12.91-12.91a5.808 5.808 0 0 0-8.215 0l-23.472 23.472a5.81 5.81 0 0 0 0 8.215z"/></svg>