<svg xmlns="http://www.w3.org/2000/svg" viewBox="0 0 432.6 476" style="enable-background:new 0 0 432.6 476" xml:space="preserve"><path d="M419.6 234.4c-.1-28.1-19-52.6-46.2-59.7L432.6 0H139l59.4 175.3c-26.4 7.7-44.5 31.8-44.5 59.3 0 20.7 10.3 39 26.2 50.2-6.2 8.8-13.4 16.9-21.5 24.7-15.3 14.3-32.2 25.4-50.6 32.7-16.5-11.2-23.7-30.9-17.2-48.5 25.1-7.7 43.5-31.4 43.5-59-.1-34-27.6-61.6-61.6-61.6-34.1 0-61.7 27.7-61.7 61.7 0 16.8 6.9 32.2 17.9 43.3L26 284c-9.2 19-19.7 40.5-23.7 64.6-8 48.1 5.1 87 36.7 108.9C56.8 469.8 76.3 476 97.4 476c36.2 0 73-18.2 108.6-35.8 25.4-12.6 51.5-25.6 77.4-32 9.4-2.3 19.4-3.7 29.9-5.2 21.2-3.1 43.1-6.2 62.8-17.6 23-13.4 38.7-35.7 43.3-61.3 3.5-19.7 0-39.5-8.8-56.9 6.1-9.8 9.3-21.1 9.2-32.7l-.2-.1zm-26.9 0c0 19.1-15.7 34.7-34.7 34.7-19.3-.2-34.8-16-34.6-35.3.1-5.8 1.6-11.6 4.4-16.7 1.1-1.9 2.5-3.9 3.9-5.5 1.4-1.7 3.1-3.2 4.8-4.6l.1-.1c1.1-.8 2.3-1.7 3.6-2.5.7-.4 1.3-.8 1.8-1.1.1 0 .3-.1.4-.1.6-.3 1.3-.6 1.9-.8.7-.3 1.4-.6 1.9-.8.1 0 .3-.1.4-.1.6-.1 1.1-.4 1.7-.6.1 0 .4-.1.6-.1l1.9-.4h.1l2.1-.4c.1 0 .4 0 .6-.1.6 0 1.1-.1 1.7-.1h.7c.7 0 1.4-.1 2.1-.1h1.8c.5 0 1 0 1.5.1h.3c1.1.1 2.2.3 3.3.6 16.1 3.5 27.7 17.7 27.7 34.2v-.2zM177.4 27.5h216.8l-49.7 146.8c-2.1.4-4.1 1.1-6.2 1.8L285.9 69.4l-52.5 106c-2.1-.7-4.3-1.1-6.5-1.5L177.4 27.5zM276 222.4c-2.5-12.7-9.1-24.3-18.6-33.1l28.5-57.6 28.8 58.8c-8.5 8.5-14.6 19.4-17.2 31.8l-21.5.1zm-69.1-21.8 1.9-.4h.4c.6-.1 1.1-.1 1.7-.3h.6c.6 0 1-.1 1.5-.1h5.4c.6 0 1 .1 1.4.1.3 0 .4 0 .7.1.6.1 1 .1 1.5.3.1 0 .3 0 .6.1l1.9.4c.6.1 1.2.3 1.8.6.1 0 .3.1.6.1.4.1 1 .3 1.4.6.1 0 .3.1.4.1.6.3 1.1.4 1.7.7h.1c.6.2 1.2.6 1.8 1 .7.3 1.3.7 1.8 1 .1 0 .1.1.3.1.6.3 1 .7 1.5 1l.1.1c1.6 1.3 3.2 2.6 4.7 4l.1.1c1.4 1.5 2.7 3.2 3.9 5 3.7 5.7 5.7 12.3 5.6 19 0 19.1-15.7 34.7-34.7 34.7-19.1-.1-34.6-15.6-34.7-34.7-.3-16.1 10.9-29.8 26-33.6zm-135.6-1c19.1 0 34.7 15.7 34.7 34.7-.1 19.1-15.6 34.6-34.7 34.7-19.1-.1-34.6-15.6-34.7-34.7.1-19.1 15.6-34.5 34.7-34.7zm320.5 119.5c-3.1 17.6-13.9 33.1-29.9 42.3-15 8.7-33.5 11.4-52.9 14.2-10.6 1.5-21.8 3.2-32.4 5.8-28.7 7-56.2 20.9-82.9 34-34.2 16.9-66.4 32.9-96.2 32.9-15.7 0-29.5-4.4-42.7-13.6-30.5-21.1-29-60.2-25.3-81.7 3.3-20.1 12.6-39 21.4-57 .6-1.1 1-2.1 1.5-3.2 3.1 1.1 6.3 1.9 9.5 2.5-5.2 29.2 9.6 59.4 38.7 74.3l5.2 2.8 5.6-2.1c24.1-8.5 46.4-22.5 66.1-41.1 10.9-10.2 20.5-21.6 28.7-34 3.1.5 6.3.7 9.4.7 28.1-.1 52.6-19 59.7-46.2h23.1c6.9 26.6 31 46.2 59.7 46.2 11 0 21.7-3 31.1-8.5 3.6 10.3 4.7 21.1 2.8 31.8l-.2-.1z" style="fill:#9a4350"/></svg>