<svg xmlns="http://www.w3.org/2000/svg" viewBox="0 0 183.7 141.4">
  <path d="m99.5 123.7 26.5-17.8 4.1-16.8c2.2-9.3 4-17.3 4-17.7 0-.4-2.1-.3-4.7.4l-4.7 1.2-3.4 14.2-3.4 14.3-12.9 8.4c-7.1 4.7-13.1 8.5-13.3 8.5-.2 0 .5-2.8 1.6-6.2 1.4-4.7 1.8-7.8 1.3-11.9l-.6-5.6 5.6-2.3c7.2-2.9 8.5-4.9 8.5-12.8 0-6-.2-6.5-4.7-12.1-2.7-3.2-5.2-6.5-5.8-7.5-.9-1.5-1.5-1.5-7.5.2l-6.5 1.9-.3 9.7c-.3 9-.4 9.7-2 8.4-1.5-1.2-1.6-1.1-.1 1.2 10.5 16.9 11.4 20.4 8 31.5-2 6.4-2.7 7.4-8.1 11.8-5.6 4.5-6.3 4.7-12 4.7-5.8 0-6.5-.3-12-4.6-5.2-4.1-6-5.1-8-11.6-3.4-10.7-1.8-18.1 6.5-30.3 1.5-2.2 2-3.4 1.2-2.6-1.5 1.2-1.7.3-1.9-8.5l-.3-9.9-6.5-1.7-6.5-1.8-1.5 2.2c-.8 1.3-3.4 4.6-5.7 7.5-4 5-4.3 5.7-4.3 11.5 0 7.6 2.1 10.6 9.3 13.2l4.7 1.8-.6 6.1c-.4 4.8-.1 7.5 1.5 12 1.1 3.1 1.8 5.7 1.5 5.7-.2 0-6.2-3.8-13.3-8.4l-12.8-8.4-2.7-10.8c-4.9-19.8-4-17.9-9.1-19.1-3.3-.7-4.5-.7-4.5.1 0 .6 1.7 8.5 3.8 17.5l3.7 16.4 26.5 17.8c23.7 15.9 26.9 17.8 30.7 17.9 3.8 0 6.7-1.7 30.7-17.7zm-25.3-11.3c4.1-1.1 8.4-5.2 7.6-7.3-1.2-3.2-13.9-4.7-20.7-2.4-2.7.9-3.5 1.7-3.5 3.6 0 1.9 1.1 3 4.4 4.8 4.9 2.5 6.9 2.8 12.2 1.3zm87.3-21.8c5.5-6.8 5.8-7.4 4.6-10.1-1.3-3.4-11.1-13.3-15.8-16.1-3.8-2.3-14.3-6-17.1-6-1.9 0-1.9.1-.4 4.8 1 2.8 3.8 7.1 7 10.7 4.7 5.1 11.2 16.5 13.7 23.9.4 1.1 1 1.5 1.4 1 .5-.5 3.4-4.2 6.6-8.2zm19-31.3c2-5.6 3.4-10.4 3.2-10.7-.3-.2-3.6-1.1-7.3-1.9-10.1-2.2-22.4-1.9-31.7.6-7.2 2-16.2 5.8-15.4 6.6.1.2 5.3 1.5 11.3 2.9 6.1 1.5 16.4 4.9 23 7.5 6.6 2.7 12.3 4.9 12.6 5 .4.1 2.3-4.5 4.3-10zM21.6 44.8c20.1 4.5 31.4 4.9 53.9 1.7 8.2-1.2 18.7-2.1 23.5-2.1 9.5 0 20.4 1.5 20.9 2.8.1.5.8 1.7 1.5 2.6 1.1 1.4 2 .7 7.8-6.1 6.4-7.7 6.6-7.9 7.7-16.1l1.2-8.3-5.7-7c-4.2-5.3-7.1-7.8-11.5-10-3.2-1.6-6.4-2.6-7.1-2.2-.7.4-4.3 3.1-8 6.1L99 11.5l-10.5-2C75 6.8 63.4 6.8 49.9 9.5l-10.7 2.1-6.8-5.4c-3.7-3-7.3-5.7-7.9-6.1-.7-.4-3.7.5-6.8 1.9-4.3 2-6.9 4.2-11.6 10L0 19.4l1.3 8.4c1.3 8.2 1.4 8.6 7.8 16l6.5 7.6 2-3.5c1.5-2.7 2.5-3.5 4-3.1zm10.3-15.1c-1.6-.2-2.8-.7-2.8-1 0-.3 2.1-3.1 4.8-6.3l4.7-5.8L50 13.9c9.7-2.3 12.9-2.6 21.5-2.2 5.5.2 14.2 1.4 19.1 2.6 8.8 2.2 9.1 2.4 13.4 7.7 2.4 3 4.2 5.7 3.9 5.9-.2.3-3.1 0-6.4-.5-9.1-1.5-22.6-1.1-36.9 1-11.9 1.8-25.8 2.3-32.7 1.3z"/>
</svg>