<svg xmlns="http://www.w3.org/2000/svg" x="0" y="0" viewBox="0 0 43 43">
  <path fill="#fff" class="st0" d="M94.7 55.3c-1.3 0-2.4.5-3.3 1.4l-.1.1-10.1 11.6c1.9 3.1 4.9 5.5 8.5 6.7v-3.3c0-2.9 2.2-5.2 5-5.2s5 2.3 5 5.2v3.3c3.5-1.2 6.5-3.5 8.4-6.6L98 56.7c-.9-.9-2.1-1.4-3.3-1.4z" transform="translate(-73.2 -38.5)"/>
  <path fill="#fff" class="st0" d="M94.7 38.5c-11.9 0-21.5 9.6-21.5 21.5s9.6 21.5 21.5 21.5 21.5-9.6 21.5-21.5-9.6-21.5-21.5-21.5zm-15 12c3.3-5.2 8.9-8.3 15-8.3s11.7 3.1 15 8.3c.3.4.2 1-.3 1.3s-1 .2-1.3-.3c-2.9-4.6-8-7.4-13.4-7.4s-10.5 2.8-13.4 7.4c-.2.3-.5.4-.8.4-.2 0-.3 0-.5-.2-.5-.2-.6-.7-.3-1.2zm24.7 3.8c-.2.1-.3.2-.5.2-.3 0-.6-.1-.8-.4-1.9-2.7-5.1-4.3-8.4-4.3-3.3 0-6.4 1.6-8.4 4.3-.3.4-.9.5-1.3.2s-.5-.9-.2-1.3c2.3-3.2 6-5.1 9.9-5.1s7.6 1.9 9.9 5.1c.3.4.2 1-.2 1.3zm-9.7 23.5c-9.8 0-17.8-8-17.8-17.8 0-1.3.1-2.6.4-3.8v-.1c.1-.5.6-.8 1.1-.7.5.1.8.6.7 1.1v.1c-.2 1.1-.4 2.2-.4 3.4 0 2.4.5 4.6 1.4 6.6l9.7-11.1.1-.1c1.2-1.2 2.9-1.9 4.6-1.9 1.7 0 3.4.7 4.6 1.9v.1l9.7 11.4c1-2.1 1.5-4.3 1.5-6.7 0-1.2-.1-2.4-.4-3.5-.1-.5.2-1 .7-1.1.5-.1 1 .2 1.1.7.3 1.3.4 2.6.4 3.9.4 9.6-7.6 17.6-17.4 17.6z" transform="translate(-73.2 -38.5)"/>
  <path fill="#fff" class="st0" d="M94.7 68.4c-1.7 0-3.2 1.5-3.2 3.3v3.8c1 .2 2.1.3 3.2.3s2.1-.1 3.2-.3v-3.8c-.1-1.8-1.5-3.3-3.2-3.3z" transform="translate(-73.2 -38.5)"/>
</svg>