<svg xmlns="http://www.w3.org/2000/svg" viewBox="0 0 500 386.45">
  <path fill="#fff" d="M449.13 330.5a107.38 107.38 0 0 0 15-1c2.93-2.93 7.17-8.14 7.17-16 0-10.1-7.17-14.34-16.95-14.34h-5.22zm-16.62 36.18v-74.31H456c21.18 0 31.94 8.8 31.94 20.86 0 9.78-6.52 15.32-13.69 19.55l19.88 33.9h-18.27l-17.6-30a79.16 79.16 0 0 1-9.13.66v29.33zm-87.34-22.16h26.07l-13-34.88c-4.6 11.74-8.84 23.14-13.07 34.88zm-17.6 22.16c10.75-23.79 20.2-46.93 31.29-74.31H369l28 74.31h-17.6L373.52 351h-30.63l-5.22 15.65zm-40.09-191.31c0-7.83 4.56-14.35 12.06-25.1 8.8-13 23.79-33.24 35.85-44a38.45 38.45 0 0 1 2.28 13.73c0 23.14-15 54.43-41.39 77.24-5.21-7.86-8.8-14.38-8.8-21.87zM241.2 303.12l3.26-10.75h61.92l-3.26 10.75c-7.49-2.93-15-5.54-20.85-5.86v69.42h-16.95v-69.42c-6.19.32-16.62 2.93-24.12 5.86zm-75.61 41.4h26.07L179 310.29c-4.61 11.41-9.18 22.82-13.41 34.23zM148 366.68c10.75-23.79 20.53-47.26 31.29-74.31h10.1l28 74.31h-17.6L193.94 351h-30.63l-5.22 15.65zm-90.62-39.11c0 24.44 9.46 33.24 23.8 33.24a30.51 30.51 0 0 0 7.49-.65c3.26-6.19 5.54-14.67 5.54-28.36 0-25.09-9.45-33.56-23.46-33.56a24.86 24.86 0 0 0-6.85 1c-3.9 5.51-6.52 13.66-6.52 28.33zm-3.26-22.82.33-.32zm-14 26.4c0-26.07 19.23-39.76 36.5-39.76 15 0 34.88 9.45 34.88 36.18 0 16.29-8.15 31-21.84 37.15 9.12 4.57 19.88 9.78 24.12 10.76a41.66 41.66 0 0 0 10.75 1.63 27.29 27.29 0 0 0 4.24-.33l.65 1.31c-2.61 2.28-11.73 7.82-18.25 7.82a23.58 23.58 0 0 1-14-4.89l-18.6-13.69a20.11 20.11 0 0 1-3.91.33c-15.97 0-34.55-9.78-34.55-36.51zM1 239.24c13 9.78 31 18.91 52.15 18.91 38.45 0 51.82-31.62 64.53-77.57 16.29 39.11 44.65 73.66 101 73.66 34.22 0 60-12.71 78.87-30.64 13.37 14.34 39.11 34.55 85.07 34.55 87 0 116.35-78.22 116.35-115.7 0-16.62-4.56-26.08-12.38-26.08-8.8 0-13.69 10.43-13.69 21.84 0 11.08 4.89 15.64 10.75 15.64a11.26 11.26 0 0 0 7.82-2.6 15.63 15.63 0 0 1 .33 3.91c0 24.44-34.22 74.63-109.18 74.63-29.66 0-53.78-7.49-72.68-19.23 23.79-30 33.24-68.44 33.24-90.27 0-15.32-4.23-39.44-9.12-46.28-3.26 4.88-8.8 12-18.25 24.11-10.11 12.71-13.69 17.6-18.58 25.42A156.46 156.46 0 0 0 300.52 90c0-39.11-14.67-71.05-25.42-89h-1.31l-10.1 30.31c16.95 30.64 28 57.69 28 77.89 0 23.8-9.78 38.79-9.78 69.75 0 12.71 1.63 20.53 3.58 26.4A116.62 116.62 0 0 1 219 225.88c-67.47 0-95.82-44.32-109.84-107.22h-1.3l-4.56 15.64a333.48 333.48 0 0 0 10.75 36.83c-6.19 30-41.71 72.35-80.5 72.35-9.78 0-21.83-2.61-31.94-5.54z"/>
  <path fill="#fff" d="m153.2 136.26.33-1.31a61.55 61.55 0 0 0 11.08.65c29 0 65.18-11.73 78.87-25.42h1.31c1.3 2 2.28 4.24 2.28 8.48 0 17.92-23.47 27.05-50.52 27.05-15.32 0-31.61-2.94-43.35-9.45zM391.12 130.39l20.88 18.9 11.41-17.6 19.55 17.6 14-21.83a119.6 119.6 0 0 0-21.19-18.26A59.86 59.86 0 0 0 424 125.5a121.89 121.89 0 0 0-19.23-16.3c-5.83 5.54-12.34 16.3-13.65 21.19z"/>
</svg>