<svg xmlns="http://www.w3.org/2000/svg" viewBox="0 0 363.44 417.52">
  <path d="M64.08,51.7h75.8a35.67,35.67,0,0,1,35.67,35.67V262.26a12.44,12.44,0,0,1-12.44,12.44H41.31a12.75,12.75,0,0,1-12.75-12.75V87.22A35.52,35.52,0,0,1,64.08,51.7Z" transform="translate(-59.41 58.42) rotate(-25)" fill="#ccc"/>
  <path d="M150.09,263.83l-56,26.1a12.76,12.76,0,0,1-16.94-6.17L3.34,125.4A35.53,35.53,0,0,1,20.52,78.19l34.42-16" transform="translate(0)" opacity="0.45"/>
  <g>
    <rect x="141.75" y="69.84" width="34.37" height="80.74" rx="15" transform="translate(9.18 232.61) rotate(-74)" fill="#f2f2f2"/>
    <path d="M177.76,97.73l-40-11.48c-4.13-1.19-8.48.29-11.73,3.51l51.78,8" transform="translate(0)" fill="#fff"/>
    <g id="forearm" style="transform-box: fill-box; transform-origin: 19% 80%">
      <rect x="160.13" y="77.16" width="92" height="34.92" rx="15" transform="translate(-7.87 169.74) rotate(-44)" fill="#f2f2f2"/>
      <path d="M216.3,60.52,177.76,97.74s18.11-13.56,23.46-18.85C205.44,74.71,216.3,60.52,216.3,60.52Z" transform="translate(0)" fill="#fff"/>
      <g opacity="0.25">
        <path d="M190.71,132a15.06,15.06,0,0,0,5.25-3.29l44.59-43.07s-24.93,21.3-32.85,28.84c-4.42,4.2-17,17.52-17,17.52" transform="translate(0)"/>
      </g>

      <g id="hand" style="transform-box: fill-box; transform-origin: 45% 80%">
        <circle cx="235.36" cy="63.49" r="18.59" fill="#f2f2f2"/>
        <rect x="214.37" y="38.04" width="9.56" height="19.13" rx="4.5" transform="matrix(0.92, -0.39, 0.39, 0.92, -1.18, 89.41)" fill="#f2f2f2"/>
        <rect x="222.43" y="32.66" width="24.97" height="9.56" rx="4.5" transform="translate(137.94 254.66) rotate(-75)" fill="#f2f2f2"/>
        <rect x="244" y="43.71" width="24.97" height="9.56" rx="4.5" transform="translate(46.09 202.99) rotate(-47)" fill="#f2f2f2"/>
        <rect x="234.17" y="34.22" width="28.31" height="9.56" rx="4.5" transform="translate(97.3 239.95) rotate(-62)" fill="#f2f2f2"/>
        <rect x="248.77" y="57.46" width="21.25" height="9.56" rx="4.5" transform="translate(-2 115.46) rotate(-25)" fill="#f2f2f2"/>

        <!-- <animateTransform id="rotateHand" attributeName="transform" type="rotate" dur="2s" repeatCount="indefinite" values="13;-13;13" keyTimes="0;0.5;1"/> -->
      </g>

      <animateTransform id="rotateArm" attributeName="transform" type="rotate" begin="0s" dur="4.5s" repeatCount="indefinite" values="0;-20;0;-20;0;0" keyTimes="0;0.05;0.1;0.15;0.2;1"/>
    </g>
    <polygon points="170.68 95.7 160.36 128.5 154.8 126.91 165.64 94.25 170.68 95.7" fill="#c1272d"/>
    <g opacity="0.25">
      <path d="M128.2,119.28l51.66,14.81A12.57,12.57,0,0,0,190.71,132s-5.88.32-18-2.73C161.63,126.5,128.2,119.28,128.2,119.28Z" transform="translate(0)"/>
    </g>
  </g>
  <path d="M170.08,285.4h0A56.51,56.51,0,0,1,95,258.07L43.31,147.23A31.19,31.19,0,0,1,58.4,105.77l45.71-21.32a31.36,31.36,0,0,1,41.68,15.17l51.62,110.7A56.5,56.5,0,0,1,170.08,285.4Z" transform="translate(0)" fill="#f2f2f2"/>
  <path d="M159.16,128.3,145.79,99.62a31.36,31.36,0,0,0-41.68-15.17s16.16,1.6,25.64,6.8C146.06,100.2,159.16,128.3,159.16,128.3Z" transform="translate(0)" fill="#fff"/>
  <path d="M14.12,190.19l-3.51-2.63a14.9,14.9,0,0,1-3-21L38.39,126.1a15.17,15.17,0,0,1,21.14-3L63,125.76a14.9,14.9,0,0,1,3,21L35.26,187.23A15.18,15.18,0,0,1,14.12,190.19Z" transform="translate(0)" fill="#f2f2f2"/>
  <g opacity="0.25">
    <path d="M41.75,178.68,67,145.43c2.6-3.42,2.78-8,.93-12.19L41.74,178.67" transform="translate(0)"/>
  </g>
  <path d="M14.09,164.93,18.65,163a15.13,15.13,0,0,1,19.79,7.92l24.34,57a15,15,0,0,1-8,19.64l-4.56,1.93a15.14,15.14,0,0,1-19.79-7.93l-24.34-57A14.94,14.94,0,0,1,14.09,164.93Z" transform="translate(0)" fill="#f2f2f2"/>
  <path d="M62.78,227.92l-21-49.25s6.19,21.74,9.23,28.62C53.37,212.72,62.78,227.92,62.78,227.92Z" transform="translate(0)" fill="#fff"/>
  <g opacity="0.25">
    <path d="M4.89,178.51a14.76,14.76,0,0,0,1.2,6.06l24.34,57s-11-30.87-15.22-40.95c-2.35-5.62-10.32-22.1-10.32-22.1" transform="translate(0)"/>
  </g>
  <ellipse cx="53.11" cy="244.63" rx="18.71" ry="18.57" transform="translate(-16.93 4.3) rotate(-4)" fill="#f2f2f2"/>
  <rect x="64.27" y="230.42" width="19.25" height="9.55" rx="4.5" transform="translate(-8.1 2.7) rotate(-1.98)" fill="#f2f2f2"/>
  <path d="M87.72,261.08l.34-.46a4.48,4.48,0,0,0-1-6.28l-13-9.36a4.56,4.56,0,0,0-6.33,1l-.33.45a4.48,4.48,0,0,0,1,6.28l13,9.36A4.55,4.55,0,0,0,87.72,261.08Z" transform="translate(0)" fill="#f2f2f2"/>
  <path d="M64.82,281l.51-.24a4.48,4.48,0,0,0,2.08-6l-7-14.33a4.54,4.54,0,0,0-6.05-2.07l-.51.25a4.48,4.48,0,0,0-2.09,6l7,14.33A4.55,4.55,0,0,0,64.82,281Z" transform="translate(0)" fill="#f2f2f2"/>
  <path d="M80.55,276.32,81,276a4.47,4.47,0,0,0,.45-6.34L68.69,255.06a4.56,4.56,0,0,0-6.39-.44l-.43.37a4.48,4.48,0,0,0-.45,6.34l12.74,14.55A4.56,4.56,0,0,0,80.55,276.32Z" transform="translate(0)" fill="#f2f2f2"/>
  <rect x="40.79" y="256.88" width="9.62" height="21.22" rx="4.5" transform="translate(-18.55 3.83) rotate(-4)" fill="#f2f2f2"/>
  <polygon points="46.22 172.8 19.14 151.45 22.64 146.84 49.39 168.61 46.22 172.8" fill="#c1272d"/>
  <path d="M39.41,124.75,6.84,167.64a12.48,12.48,0,0,0-1.95,10.87s1.83-5.6,9.07-15.84C20.55,153.35,39.41,124.75,39.41,124.75Z" transform="translate(0)" fill="#fff"/>
  <rect x="217.58" y="191.84" width="46" height="127" rx="23" transform="translate(-71.18 416.23) rotate(-74)" fill="#f2f2f2"/>
  <path d="M302.2,262.69a23,23,0,0,0-16.35-18.29L208,222.07a22.94,22.94,0,0,0-10.61-.49l105.27,41" transform="translate(0)" fill="#fff"/>
  <rect x="271.96" y="245.86" width="46" height="115" rx="23" transform="translate(-95.08 139.36) rotate(-23)" fill="#f2f2f2"/>
  <path d="M314.92,382.42l38-6.71a12.72,12.72,0,0,0,4.38-23.4l-12.81-7.76a34.77,34.77,0,0,0-24-4.5L300,343.65a12.72,12.72,0,0,0-10.32,14.74l1.29,7.26A20.67,20.67,0,0,0,314.92,382.42Z" transform="translate(0)" fill="#f2f2f2"/>
  <path d="M363.44,362.9a12.46,12.46,0,0,0-6.14-10.59l-12.81-7.76A34.82,34.82,0,0,0,331,339.81s14.85,8.34,19.41,11.58C353.92,353.92,363.44,362.9,363.44,362.9Z" transform="translate(0)" fill="#fff"/>
  <polygon points="250.08 281.99 264.63 238.31 256.74 236.05 241.96 279.67 250.08 281.99" fill="#c1272d"/>
  <g opacity="0.25">
    <path d="M291,350.15s.82-5.34-3-13.49c-10.15-21.77-25.62-51.13-25.62-51.13l24.86,58.57a23.14,23.14,0,0,0,3.75,6" transform="translate(0)"/>
  </g>
  <path d="M358.36,373.41a12.74,12.74,0,0,1-5.44,2.3l-38,6.71A20.67,20.67,0,0,1,291,365.65l-1.29-7.26a12.71,12.71,0,0,1,1.33-8.24s4.07,22.94,18.75,26C327.19,379.84,358.36,373.41,358.36,373.41Z" transform="translate(0)" opacity="0.3"/>
  <g opacity="0.25">
    <path d="M262.41,285.53l-60-17.21S220.09,269,233,273a149.93,149.93,0,0,1,29.45,12.56" transform="translate(0)"/>
  </g>
  <path d="M237.23,307.46h0a22.86,22.86,0,0,1-29.79,12.65l-74.78-30.29A23,23,0,0,1,120,260h0a22.86,22.86,0,0,1,29.8-12.65l74.78,30.29A23,23,0,0,1,237.23,307.46Z" transform="translate(0)" fill="#f2f2f2"/>
  <path d="M238.86,297.45a23,23,0,0,0-14.29-19.85l-74.78-30.29a22.76,22.76,0,0,0-10.46-1.6l100,51.71" transform="translate(0)" fill="#fff"/>
  <rect x="204.59" y="279.67" width="45.78" height="114.67" rx="22.89" transform="translate(-88.57 81.21) rotate(-17)" fill="#f2f2f2"/>
  <path d="M239.06,417.47l38.32-2.66c11.65-.81,16.07-15.65,6.76-22.74l-11.88-9a34.57,34.57,0,0,0-23.34-7l-20.61,1.43A12.66,12.66,0,0,0,216.57,391l.52,7.33A20.6,20.6,0,0,0,239.06,417.47Z" transform="translate(0)" fill="#f2f2f2"/>
  <path d="M289.11,403.21a12.4,12.4,0,0,0-5-11.14l-11.88-9a34.49,34.49,0,0,0-12.92-6.12s13.84,9.82,18,13.51C280.62,393.31,289.11,403.21,289.11,403.21Z" transform="translate(0)" fill="#fff"/>
  <polygon points="185.25 311.12 204.18 269.34 196.6 266.27 177.46 307.97 185.25 311.12" fill="#c1272d"/>
  <g opacity="0.25">
    <path d="M218.74,383s1.35-5.2-1.57-13.69c-7.79-22.64-20.08-53.37-20.08-53.37l18.56,60.67a22.67,22.67,0,0,0,3.09,6.39" transform="translate(0)"/>
  </g>
  <path d="M283,413.1a12.71,12.71,0,0,1-5.62,1.71l-38.32,2.66a20.6,20.6,0,0,1-22-19.13l-.52-7.33a12.62,12.62,0,0,1,2.17-8s1.65,23.17,15.86,27.77C251.48,416.2,283,413.1,283,413.1Z" transform="translate(0)" opacity="0.25"/>
  <g opacity="0">
    <path d="M197.09,315.92l-57.65-23.35s17.46,2.57,29.79,7.81a149.21,149.21,0,0,1,27.86,15.54" transform="translate(0)"/>
  </g>
  <g opacity="0.25">
    <path d="M129.45,288.16" transform="translate(0)"/>
  </g>
  <circle cx="63.49" cy="52.09" r="51.5" fill="#f2f2f2"/>
  <path d="M78.07,101.49a51.54,51.54,0,0,1-59.5-24.2S33.09,92.19,46.38,97A83.18,83.18,0,0,0,78.07,101.49Z" transform="translate(0)" opacity="0.25"/>
  <path d="M115,52.45A46,46,0,0,1,28.57,61.2c-9.22-19.77-2.85-43.1,13.61-56,0,0,26.76-13.58,50,3.16C117.26,26.4,115,52.45,115,52.45Z" transform="translate(0)" fill="#2e3192"/>
  <path d="M106.27,30.93A55,55,0,0,0,89.42,11.86C77.79,3.49,65.29,2.7,55.69,4c0,0,17.09,1.58,28.35,8.16A88.07,88.07,0,0,1,106.27,30.93Z" transform="translate(0)" fill="#aeafe5"/>
  <path d="M200.45,218.37c-13,20.31-12.27,26.59-12.27,26.59s1.15-9.36,13.22-22.85C201.83,221.63,201,217.56,200.45,218.37Z" transform="translate(0)" opacity="0.25"/>
  <circle cx="168.56" cy="193.42" r="7.5" fill="gray"/>
  <path d="M187.9,173.37c4,.26,10-.75,16.86-2.89,10.12-3.18,14.74-8.63,19.88-7.07s6.9,6.85,5.91,12.69c-.83,4.92-4.77,5-7.91,11.42-4.11,8.32,0,12.91-3.63,18.24-4.86,7.17-16,9.73-22.06,4.77-4.08-3.33-3.08-9.3-7.24-13.17-4.72-4.4-15.38-8-20.84-6.84,0,0-2.1,0-2.29,1.95-.31,3.13,1.26,2.95,1.26,2.95,6.1-1.3,14.06-.14,19.33,4.77,4.65,4.34,2.69,9.46,7.25,13.18,6.8,5.54,22,2.94,27.42-5.07,4-6-.47-10.27,4.12-19.57,3.52-7.14,7.47-7.25,8.4-12.75,1.1-6.52-3-15-8.94-16.79-5.74-1.75-9.47,3.94-20.78,7.48a51.69,51.69,0,0,1-18.85,2.17Z" transform="translate(0)" fill="#b3b3b3">
    <animate id="airPipeMorph1" dur="2s" begin="0;airPipeMorphOriginal.end" fill="freeze" attributeName="d" attributeType="XML" to="M187.9,173.37c4,.26,10-.75,16.86-2.89,10.12-3.18,15.09-12.57,20.23-11s6.55,10.78,5.56,16.62c-.83,4.92-7.41,4-10.56,10.38-4.1,8.32,6.62,17.67,3,23-4.86,7.16-20,6-26,1.05-4.08-3.33-.8-16.18-5-20.05-4.71-4.4-17.66-1.11-23.12,0,0,0-2.1,0-2.29,1.95-.31,3.13,1.26,2.95,1.26,2.95,6.1-1.3,15.88-6.86,21.15-1.94,4.65,4.33.87,16.17,5.43,19.89,6.8,5.54,26.14,6.12,31.57-1.89,4-6-6.58-14.7-2-24,3.52-7.14,9.44-6,10.37-11.5,1.1-6.52-2.46-18.7-8.37-20.5-5.74-1.75-10,7.65-21.35,11.19a51.69,51.69,0,0,1-18.85,2.17Z" />
    <animate id="airPipeMorph2" dur="4s" begin="airPipeMorph1.end" fill="freeze" attributeName="d" attributeType="XML" to="M187.9,173.37c4,.26,10-.75,16.86-2.89,10.12-3.18,15.09-12.57,20.23-11s6.55,10.78,5.56,16.62c-.83,4.92,18.59,13,15.44,19.38-4.1,8.32-28.38-14.33-32-9-4.86,7.16-11,29-17,24.05-4.08-3.33-.8-16.18-5-20.05-4.71-4.4-17.66-1.11-23.12,0,0,0-2.1,0-2.29,1.95-.31,3.13,1.26,2.95,1.26,2.95,6.1-1.3,15.88-6.86,21.15-1.94,4.65,4.33.87,16.17,5.43,19.89,6.8,5.54,15.14-14.88,20.57-22.89,4-6,28.42,16.3,33,7,3.52-7.14-14.56-16-13.63-21.5,1.1-6.52-2.46-18.7-8.37-20.5-5.74-1.75-10,7.65-21.35,11.19a51.69,51.69,0,0,1-18.85,2.17Z" />
    <animate id="airPipeMorphOriginal" dur="4s" begin="airPipeMorph2.end" fill="freeze" attributeName="d" attributeType="XML" to="M187.9,173.37c4,.26,10-.75,16.86-2.89,10.12-3.18,14.74-8.63,19.88-7.07s6.9,6.85,5.91,12.69c-.83,4.92-4.77,5-7.91,11.42-4.11,8.32,0,12.91-3.63,18.24-4.86,7.17-16,9.73-22.06,4.77-4.08-3.33-3.08-9.3-7.24-13.17-4.72-4.4-15.38-8-20.84-6.84,0,0-2.1,0-2.29,1.95-.31,3.13,1.26,2.95,1.26,2.95,6.1-1.3,14.06-.14,19.33,4.77,4.65,4.34,2.69,9.46,7.25,13.18,6.8,5.54,22,2.94,27.42-5.07,4-6-.47-10.27,4.12-19.57,3.52-7.14,7.47-7.25,8.4-12.75,1.1-6.52-3-15-8.94-16.79-5.74-1.75-9.47,3.94-20.78,7.48a51.69,51.69,0,0,1-18.85,2.17Z" />
  </path>
  <path d="M158.93,143.18l8.66,18.57a3.25,3.25,0,0,1-1.58,4.32L114.82,190a3.26,3.26,0,0,1-4.33-1.58l-10-21.52L89.39,143.13A3.25,3.25,0,0,1,91,138.81l28.74-13.41A3.26,3.26,0,0,1,124,127l9.68,20.77a3.26,3.26,0,0,0,4.33,1.57l16.55-7.72A3.26,3.26,0,0,1,158.93,143.18Z" transform="translate(0)" fill="#ccc"/>
  <circle cx="152.38" cy="154.43" r="7.31" opacity="0.25"/>
  <path d="M159.31,156.76a7.31,7.31,0,0,0-13.5-5.54s4.47-2.64,8.95-1S159.31,156.76,159.31,156.76Z" transform="translate(0)" opacity="0.25"/>
  <path d="M117.56,188.67l-3.43-7.36a3.15,3.15,0,0,1,1.52-4.19l19-8.86a3.15,3.15,0,0,1,4.18,1.52l.35.76a3.16,3.16,0,0,0,4.18,1.52l5.71-2.66a3.13,3.13,0,0,1,4.17,1.52l.43.91Z" transform="translate(0)" opacity="0.25"/>
  <circle cx="113" cy="147.61" r="12.5"/>
  <path d="M117.35,142.09l-.63.08a2.71,2.71,0,0,0-.09-.41c-.52-2.21-1.54-3.7-2.72-3.8s-2.32,1.11-3.19,3.07c-.09.18-.17.38-.25.58l-.4-.13c-2.17-.64-4-.5-4.65.46s-.2,2.57,1.06,4.31l.39.5c-.19.16-.37.33-.54.49-1.5,1.47-2.19,3-1.72,4s2.22,1.53,4.39,1.3l.53-.07c0,.23.09.45.15.67.52,2,1.49,3.39,2.61,3.49s2.43-1.16,3.32-3.16c.07-.15.13-.32.2-.49l.65.21c2,.57,3.69.4,4.33-.52s.22-2.69-1.07-4.45l-.31-.41.27-.24c1.64-1.56,2.42-3.19,1.93-4.26s-2.13-1.46-4.26-1.23Zm1.78,4.91-.25.22a18.66,18.66,0,0,0-1.86-1.75,19.62,19.62,0,0,0-.16-2.51l.58-.08c1.82-.19,3.15.16,3.44.78s-.33,2-1.75,3.34Zm-.06,1.7a6.82,6.82,0,0,1,1.13,2.21,1.68,1.68,0,0,1-.06,1.31c-.4.56-1.73.69-3.46.21l-.61-.19a17.75,17.75,0,0,0,.58-2.48,18.06,18.06,0,0,0,2.14-1.42l.28.36Zm-5.54,6.54a1.64,1.64,0,0,1-1.17.6c-.68-.06-1.46-1.15-1.91-2.89,0-.2-.09-.41-.13-.62a18.45,18.45,0,0,0,2.44-.74,19.36,19.36,0,0,0,2.3,1.12,4.68,4.68,0,0,1-.19.45,7,7,0,0,1-1.34,2.08Zm-4.61-3.49a7,7,0,0,1-2.48-.13,1.61,1.61,0,0,1-1.1-.71c-.29-.62.26-1.84,1.55-3.09.16-.16.33-.31.5-.46a20.62,20.62,0,0,0,1.83,1.76,20.73,20.73,0,0,0,.18,2.57l-.48.06Zm-1.79-6c-1.08-1.48-1.44-2.81-1-3.37s1.89-.71,3.76-.15l.37.12a18.8,18.8,0,0,0-.62,2.46,21.9,21.9,0,0,0-2.1,1.41,5.32,5.32,0,0,1-.36-.47Zm8.17-1.6c-.3-.22-.6-.42-.91-.61a15.07,15.07,0,0,1,1.68-.45c.07.53.12,1.11.14,1.71-.29-.22-.6-.44-.91-.65ZM111,142.65a16.72,16.72,0,0,1,1.56.74l-1,.45c-.33.15-.66.32-1,.49.13-.59.28-1.16.45-1.68ZM109.31,147c0,.37-.06.74-.07,1.1a15.78,15.78,0,0,1-1.23-1.22c.44-.33.91-.66,1.42-1-.05.36-.09.73-.12,1.1Zm2.56,4.09c-.59.19-1.15.35-1.68.47a15.85,15.85,0,0,1-.15-1.75c.29.22.58.44.89.65h0c.31.22.62.43.94.63Zm3.45.89c-.52-.21-1-.46-1.59-.74l1-.45c.35-.16.69-.33,1-.5a16.62,16.62,0,0,1-.43,1.69ZM117,146.5a14.79,14.79,0,0,1,1.26,1.23,17.67,17.67,0,0,1-1.46,1q.08-.54.12-1.11c0-.38.06-.76.08-1.13Zm-.87,1.06c-.06.59-.12,1.15-.21,1.7-.48.27-1,.53-1.53.78s-1,.47-1.56.67c-.48-.29-1-.6-1.44-.93h0c-.48-.34-.93-.68-1.37-1,0-.55,0-1.13.09-1.7h0c0-.58.12-1.15.21-1.7.49-.27,1-.53,1.52-.78h0c.53-.24,1-.47,1.58-.66.47.28,1,.59,1.43.92s.93.68,1.36,1c0,.56,0,1.14-.08,1.72Zm-2.29-8.8c.72.06,1.56,1.28,2,3.18,0,.12,0,.25.08.37a19.43,19.43,0,0,0-2.44.71,19.24,19.24,0,0,0-2.28-1.13l.23-.54c.74-1.68,1.71-2.65,2.39-2.59Zm-1.44,7a1.67,1.67,0,1,1-.81,2.22,1.68,1.68,0,0,1,.81-2.22Z" transform="translate(0)" fill="#00d8ff"/>
  <g opacity="0.25">
    <path d="M141.23,293.34l55.86,22.58-59.73-28.51s-4.83-3.26-8.08-5.51C98.52,260.63,66.06,146.33,66.06,146.33L51.82,165.48,95,258.07a50.74,50.74,0,0,0,16.25,20.59c5.8,4.32,13.24,7.79,17.76,9.71,2.45,1,4,1.61,4,1.61Z" transform="translate(0)"/>
  </g>
  <path d="M106.19,274.48" transform="translate(0)"/>
</svg>