<?xml version="1.0" encoding="utf-8"?>
<!-- Generator: Adobe Illustrator 25.2.3, SVG Export Plug-In . SVG Version: 6.00 Build 0)  -->
<svg version="1.1" id="Layer_1" xmlns="http://www.w3.org/2000/svg" xmlns:xlink="http://www.w3.org/1999/xlink" x="0px" y="0px"
	 viewBox="0 0 375 812" style="enable-background:new 0 0 375 812;" xml:space="preserve">
<style type="text/css">
	.st0{clip-path:url(#mask_1_);}
	.st1{fill:#212121;}
	.st2{fill:#F9EEF1;}
	.st3{fill:#F9EEF1;stroke:#F9EEF1;stroke-linejoin:round;stroke-miterlimit:10;}
	.st4{fill:#C8C8C8;}
	.st5{opacity:0.3;}
	.st6{fill:#F9EEF2;}
	.st7{fill:#C4BCBF;}
</style>
<g>
	<defs>
		<rect id="mask" width="375" height="812"/>
	</defs>
	<clipPath id="mask_1_">
		<use xlink:href="#mask"  style="overflow:visible;"/>
	</clipPath>
	<g id="sky" class="st0">
		<g id="bg">
			<rect x="-990.5" class="st1" width="1366" height="812"/>
		</g>
		<circle id="star_23_" class="st2" cx="335.6" cy="407.3" r="3"/>
		<circle id="star_17_" class="st2" cx="250.5" cy="275" r="3"/>
		<circle id="star_11_" class="st2" cx="105.6" cy="175.3" r="3"/>
		<circle id="star_6_" class="st2" cx="115.6" cy="435.3" r="3"/>
		<circle id="star_5_" class="st2" cx="245.6" cy="495.3" r="3"/>
		<circle id="star_4_" class="st2" cx="305.6" cy="675.3" r="3"/>
		<circle id="star" class="st2" cx="85.8" cy="735.3" r="3"/>
		<polygon id="star_big_6_" class="st3" points="38,294 31.6,296.1 29.5,302.5 27.4,296.1 21,294 27.4,291.9 29.5,285.5 31.6,291.9 
					"/>
		<polygon id="star_big_1_" class="st3" points="66.8,616.6 60.5,618.7 58.4,625 56.2,618.7 49.9,616.6 56.2,614.4 58.4,608.1 
			60.5,614.4 		"/>
		<circle id="star_small_4_" class="st4" cx="163.5" cy="311" r="1"/>
		<circle id="star_small_5_" class="st4" cx="118" cy="492.5" r="1"/>
		<circle id="star_small_31_" class="st4" cx="89.3" cy="555.8" r="2.3"/>
		<circle id="star_small_35_" class="st4" cx="290.3" cy="555.8" r="2.3"/>
		<circle id="star_small_36_" class="st4" cx="240.3" cy="616.8" r="2.3"/>
		<circle id="star_small_34_" class="st4" cx="78" cy="623.5" r="1"/>
		<circle id="star_small_33_" class="st4" cx="198" cy="372.5" r="1"/>
		<circle id="star_small_37_" class="st4" cx="330.5" cy="278" r="1"/>
		<circle id="star_small_9_" class="st4" cx="210" cy="737.5" r="1"/>
		<circle id="star_small_10_" class="st4" cx="250" cy="326.5" r="1"/>
		<circle id="star_small_26_" class="st4" cx="117" cy="246.5" r="1"/>
		<circle id="star_small_27_" class="st4" cx="57" cy="377.5" r="1"/>
		<circle id="star_34_" class="st2" cx="365.7" cy="4.4" r="3"/>
		<circle id="star_30_" class="st2" cx="75.7" cy="4.4" r="3"/>
		<circle id="star_8_" class="st2" cx="265.5" cy="30" r="3"/>
		<circle id="star_small_49_" class="st4" cx="366" cy="121.6" r="1"/>
		<circle id="star_small_41_" class="st4" cx="196" cy="21.6" r="1"/>
		<circle id="star_small_40_" class="st4" cx="196" cy="112.6" r="1"/>
		<circle id="star_small_39_" class="st4" cx="75" cy="82.6" r="1"/>
		<circle id="star_small_32_" class="st4" cx="5" cy="173.6" r="1"/>
		<g id="moon">
			<g id="glow_1_" class="st5">
				<circle class="st6" cx="288.1" cy="145.8" r="75"/>
			</g>
			<g id="glow" class="st5">
				<circle class="st6" cx="288.4" cy="145.2" r="62.9"/>
			</g>
			<g id="moon_main">
				<circle class="st6" cx="288" cy="145.6" r="49"/>
			</g>
			<path id="spot_3_" class="st7" d="M328.1,137c-0.6-0.5-1.9-1.6-3.7-1.5c-1.9,0.1-3.8,1.3-3.7,2.2c0.1,0.7,1.2,0.7,2.2,2.2
				c0.5,0.7,0.4,0.9,0.7,1.5c0.7,1.2,2.6,2.8,4.5,2.2c1.3-0.4,2.2-1.7,2.2-3C330.4,138.9,329,137.7,328.1,137z"/>
			<path id="spot_2_" class="st7" d="M327.3,157.9c-0.4,0.6-2.7,4-6.7,4.5c-5.2,0.6-9.1-4.4-9.7-5.2c-3.8-5.1-0.9-8.7-4.5-12.7
				c-3.7-4.1-8.9-2.8-9.7-6c-0.6-2.2,1.5-5,3.7-6c4.8-2.2,10.9,3.4,11.2,3.7c4.7,4.4,3.5,8.6,7.5,10.5c3.8,1.8,6.8-1.3,9,0.7
				C330.3,149.5,329.5,154.7,327.3,157.9z"/>
			<path id="spot_1_" class="st7" d="M317.6,127.2c-1.1,1.8-3.8,2.7-6,2.2c-2.9-0.6-2.8-3.2-6-4.5c-3.6-1.5-6.1,0.8-7.5-0.7
				c-1.8-2,0.6-8,3-8.2c2.1-0.2,3.5,4.2,5.2,3.7c1.6-0.4,1.1-3.8,3-4.5c1.9-0.7,4.6,2.3,5.2,3C315.3,119,319.6,123.9,317.6,127.2z"
				/>
			<path id="spot" class="st7" d="M297.4,110.8c-0.3-2.6-1.9-5.6-4.5-6.7c-2.6-1.1-4.1,0.6-10.5,1.5c-6,0.9-6.3-0.5-9.7,0.7
				c-0.8,0.3-6.3,2.3-9,7.5c-1.6,3.2-0.6,4.4-2.2,6c-2.8,2.8-6.7-0.1-10.5,2.2c-3.5,2.2-4.8,7.8-3.7,12c1.2,4.7,5.1,7.2,6.7,8.2
				c7,4.4,12.6,1.6,15,5.2c2.4,3.8-2.3,8.7,0,11.2c2.2,2.4,9.2,1.2,12.7-3c2.5-3,3.1-7.2,2.2-10.5c-1.4-5.5-6.1-6.2-6-9.7
				c0.1-3.3,4.2-4,10.5-9.7C292.2,122.2,298.1,116.8,297.4,110.8z"/>
		</g>
	</g>
</g>
</svg>
