<?xml version="1.0" encoding="utf-8"?>
<!-- Generator: Adobe Illustrator 25.2.3, SVG Export Plug-In . SVG Version: 6.00 Build 0)  -->
<svg version="1.1" id="Layer_1"
	xmlns="http://www.w3.org/2000/svg"
	xmlns:xlink="http://www.w3.org/1999/xlink" x="0px" y="0px" viewBox="0 0 1366 650" style="enable-background:new 0 0 1366 650;" xml:space="preserve">
	<style type="text/css">
	.st0{fill:none;stroke:#131421;stroke-width:8;stroke-linecap:round;stroke-linejoin:round;stroke-miterlimit:10;}
	.st1{fill:none;stroke:#2F2E60;stroke-width:3.5;stroke-linecap:round;stroke-linejoin:round;stroke-miterlimit:10;}
	.st2{fill:none;stroke:#131421;stroke-width:6;stroke-linecap:round;stroke-linejoin:round;stroke-miterlimit:10;}
	.st4{fill:#111120;}
	.st5{fill:none;stroke:#2F2E60;stroke-width:6;stroke-linecap:round;stroke-linejoin:round;stroke-miterlimit:10;}
	.st6{fill:#111120;stroke:#2F2E60;stroke-width:3.5;stroke-linecap:round;stroke-linejoin:round;stroke-miterlimit:10;}
	</style>
	<g id="middle">
		<g id="radio_tower">
			<polygon id="base_10_" class="st0" points="56.5,80 93.1,360.3 12,360 48.5,80 		"/>
			<polyline class="st0" points="82.2,276.6 34.1,190.4 70.9,190.4 		"/>
			<line class="st1" x1="71" y1="251.8" x2="44.7" y2="204.8"/>
			<line class="st0" x1="61.3" y1="116.5" x2="43.8" y2="116.5"/>
			<line class="st2" x1="34.1" y1="190.4" x2="61.3" y2="116.5"/>
			<polyline class="st0" points="12,360 82.2,276.6 22.9,276.6 		"/>
			<line id="light_21_" class="st1" x1="59.5" y1="82" x2="68" y2="147"/>
			<line class="st2" x1="52.6" y1="80" x2="52.6" y2="61.3"/>
			<circle id="light_bulb" class="st3" cx="52.5" cy="57.5" r="8.5" fill="#1D0C0C">
				<animate id="lightBulbOn" attributeName="fill" from="#1D0C0C" to="#bd0000" dur="0.0001s" begin="lightBulbOff.end + 1.5s" fill="freeze"/>
				<animate id="lightBulbOff" attributeName="fill" to="#1D0C0C" dur="0.00001s" begin="0s;lightBulbOn.end + 1.5s" fill="freeze"/>
			</circle>
			<path id="light_23_" class="st1" d="M30,274"/>
		</g>
		<g id="ground_2_">
			<path id="base_4_" class="st4" d="M0,650h756c0,0-326-252-756-319V650"/>
			<path id="light_24_" class="st5" d="M731,628.7c-52.1-36.4-173.9-115.6-338.9-185.4"/>
		</g>
		<g id="tree_1_">
			<path id="base_5_" class="st4" d="M296,434h68l-17-36h3.8c3.5,0,5.7-3.9,3.8-6.9L336,362h1.3c2.1,0,3.4-2.3,2.3-4.1l-11.9-19.1
			c-1.5-2.5-5.2-2.2-6.4,0.5l-7.7,18c-0.7,1.7,0.5,3.6,2.4,3.6h2l-12,32.5c-0.9,2.4,1.2,4.7,3.7,4.2l3.3-0.7L296,434z"/>
			<path id="light_18_" class="st1" d="M338,397c7,1,11.8,1,11.8,1c3.5,0,5.7-3.9,3.8-6.9l-18-28.1"/>
		</g>
		<g id="tree_2_">
			<path id="base_7_" class="st4" d="M238,386h-45c0,0,8-25.8,14-34.4h-2.7c-1.5,0-2.5-1.7-1.7-3c2.7-4.5,6.3-13.6,10.4-21.6
			c0.3-0.6,1.1-0.8,1.5-0.2c2.8,4.3,10.7,16.4,12.3,21.3c0.3,1-0.2,2-1.2,2.4l-3.2,1.2C222.5,351.7,227,374,238,386z"/>
			<path id="light_17_" class="st6" d="M213.9,328.2c3.1,4.7,10.9,16.8,12.1,21.2"/>
		</g>
		<g id="tree">
			<path id="base_6_" class="st4" d="M277,290l3.1-0.4c1.7-0.2,2.7-2,2.1-3.6c-2.1-5-1.6-11.8-0.9-16c0.2-1.6-1.4-2.9-2.9-2.1
			c-6.1,3-11.6,5.5-15.4,7.1c-2.4,1-3.1,4.1-1.4,6.1l2.5,2.9c-8.4,9.1-15.3,17.7-18.7,22c-1.2,1.5-0.7,3.8,1,4.8l7.7,4.2
			c-18.2,14.1-28.5,31.2-32.3,38.5c-1,1.9-0.2,4.2,1.7,5.1L235,364c-14,22-27,47-27,47l84.5-0.5c0,0-9.5-7.5-20.5-37.5l3.9-0.4
			c3.8-0.3,6.6-3.9,5.9-7.7c-1.6-9.1-4.4-26.2-7.8-46.9h3.5c2.6,0,4.5-2.5,3.8-5C279.9,308.4,278.1,300.9,277,290z"/>
			<path id="light_19_" class="st1" d="M282.4,287.6c0.1-0.5,0.1-1.1-0.1-1.6c-2.1-5-1.6-11.8-0.9-16"/>
		</g>
		<g id="tree_3_">
			<path id="base_8_" class="st4" d="M111,371l68,1l-17.2-45h3.8c3.5,0,5.7-3.9,3.8-6.9L150.8,291h1.3c2.1,0,3.4-2.3,2.3-4.1L143,256
			c-1.5-2.5-3.9-1.7-5,1l-9.6,29.4c-0.7,1.7,0.5,3.6,2.4,3.6h2l-12,32.5c-0.9,2.4,1.2,4.7,3.7,4.2l3.3-0.7L111,371z"/>
			<path id="light_20_" class="st1" d="M152.8,326c7,1,11.8,1,11.8,1c3.5,0,5.7-3.9,3.8-6.9l-18-28.1"/>
		</g>
		<g id="tree_4_">
			<path id="base_9_" class="st4" d="M1.4,238l-3.1-0.4c-1.7-0.2-2.7-2-2.1-3.6c2.1-5,1.6-11.8,0.9-16c-0.2-1.6,1.4-2.9,2.9-2.1
			c6.1,3,11.6,5.5,15.4,7.1c2.4,1,3.1,4.1,1.4,6.1l-2.5,2.9c8.4,9.1,15.3,17.7,18.7,22c1.2,1.5,0.7,3.8-1,4.8l-7.7,4.2
			c18.2,14.1,28.5,31.2,32.3,38.5c1,1.9,0.2,4.2-1.7,5.1L43.4,312c14,22,27,47,27,47l-84.5-0.5c0,0,9.5-7.5,20.5-37.5l-3.9-0.4
			c-3.8-0.3-6.6-3.9-5.9-7.7c1.6-9.1,4.4-26.2,7.8-46.9H1c-2.6,0-4.5-2.5-3.8-5C-1.5,256.4,0.3,248.9,1.4,238z"/>
			<path id="light_22_" class="st1" d="M23.4,262c18.2,14.1,28.5,31.2,32.3,38.5c1,1.9,0.2,4.2-1.7,5.1L42.4,311"/>
		</g>
		<g id="tree_5_">
			<path id="base_11_" class="st4" d="M103.8,357.8h-45c0,0,8-25.8,14-34.4h-2.7c-1.5,0-2.5-1.7-1.7-3c2.7-4.5,6.3-13.6,10.4-21.6
			c0.3-0.6,1.1-0.8,1.5-0.2c2.8,4.3,10.7,16.4,12.3,21.3c0.3,1-0.2,2-1.2,2.4l-3.2,1.2C88.3,323.5,92.8,345.8,103.8,357.8z"/>
		</g>
	</g>
</svg>
