<?xml version="1.0" encoding="utf-8"?>
<!-- Generator: Adobe Illustrator 25.3.1, SVG Export Plug-In . SVG Version: 6.00 Build 0)  -->
<svg version="1.1" id="Capa_1" xmlns="http://www.w3.org/2000/svg" xmlns:xlink="http://www.w3.org/1999/xlink" x="0px" y="0px"
	 viewBox="0 0 473.7 473.7" style="enable-background:new 0 0 473.7 473.7;" xml:space="preserve">
<style type="text/css">
	.st0{fill:#F3F4F5;}
	.st1{fill:#DC4D4E;}
</style>
<path class="st0" d="M324.8,236.8h148.9C473.7,106,367.6,0,236.8,0C302.2,0,324.8,118.4,324.8,236.8z"/>
<path class="st0" d="M0,236.8h334.9C334.9,118.4,302.2,0,236.8,0C106,0,0,106,0,236.8z"/>
<path class="st1" d="M319.8,236.8c0,118.4-17.5,236.8-82.9,236.8c130.8,0,236.8-106,236.8-236.8H319.8z"/>
<path class="st1" d="M334.9,236.8H0c0,130.8,106,236.8,236.8,236.8C302.2,473.7,334.9,355.3,334.9,236.8z"/>
</svg>
