<?xml version="1.0" encoding="utf-8"?>
<!-- Generator: Adobe Illustrator 25.2.3, SVG Export Plug-In . SVG Version: 6.00 Build 0)  -->
<svg version="1.1" id="Layer_1"
	xmlns="http://www.w3.org/2000/svg"
	xmlns:xlink="http://www.w3.org/1999/xlink" x="0px" y="0px" viewBox="0 0 1366 650" style="enable-background:new 0 0 1366 650;" xml:space="preserve">
	<style type="text/css">
	.st0{fill:#212121;}
	.st1{fill:#F9EEF1;}
	.st2{fill:#F9EEF1;stroke:#F9EEF1;stroke-linejoin:round;stroke-miterlimit:10;}
	.st3{fill:#C8C8C8;}
	.st4{opacity:0.3;}
	.st5{fill:#F9EEF2;}
	.st6{fill:#C4BCBF;}
	.st7{opacity:0.6;}
	</style>
	<g id="sky">
		<g id="bg">
			<rect class="st0" width="1366" height="650"/>
		</g>
		<circle id="star_21_" class="st1" cx="188" cy="36" r="3"/>
		<circle id="star_20_" class="st1" cx="626.1" cy="333.3" r="3"/>
		<circle id="star_19_" class="st1" cx="546.1" cy="223.3" r="3"/>
		<circle id="star_22_" class="st1" cx="426.1" cy="164.3" r="3"/>
		<circle id="star_25_" class="st1" cx="265.1" cy="224.3" r="3"/>
		<circle id="star_23_" class="st1" cx="1326.1" cy="245.3" r="3"/>
		<circle id="star_18_" class="st1" cx="336.1" cy="333.3" r="3"/>
		<circle id="star_17_" class="st1" cx="626.1" cy="113.3" r="3"/>
		<circle id="star_16_" class="st1" cx="826.1" cy="213.3" r="3"/>
		<circle id="star_15_" class="st1" cx="556.1" cy="423.3" r="3"/>
		<circle id="star_14_" class="st1" cx="496.1" cy="43.3" r="3"/>
		<circle id="star_13_" class="st1" cx="156.1" cy="233.3" r="3"/>
		<circle id="star_26_" class="st1" cx="186.1" cy="334.3" r="3"/>
		<circle id="star_12_" class="st1" cx="796.1" cy="503.3" r="3"/>
		<circle id="star_11_" class="st1" cx="976.1" cy="13.3" r="3"/>
		<circle id="star_9_" class="st1" cx="186.1" cy="453.3" r="3"/>
		<circle id="star_7_" class="st1" cx="976.1" cy="333.3" r="3"/>
		<circle id="star_24_" class="st1" cx="976.1" cy="494.3" r="3"/>
		<circle id="star_6_" class="st1" cx="1106.1" cy="273.3" r="3"/>
		<circle id="star_5_" class="st1" cx="1236.1" cy="333.3" r="3"/>
		<circle id="star_4_" class="st1" cx="1296.1" cy="513.3" r="3"/>
		<circle id="star_3_" class="st1" cx="386.1" cy="553.3" r="3"/>
		<circle id="star_2_" class="st1" cx="1249.1" cy="53.3" r="3"/>
		<circle id="star_1_" class="st1" cx="596.3" cy="623.3" r="3"/>
		<circle id="star" class="st1" cx="1076.3" cy="573.3" r="3"/>
		<polygon id="star_big_6_" class="st2" points="1009.5,132 1003.1,134.1 1001,140.5 998.9,134.1 992.5,132 998.9,129.9 1001,123.5 
		1003.1,129.9 	"/>
		<polygon id="star_big_5_" class="st2" points="301.3,139.6 295,141.7 292.9,148 290.7,141.7 284.4,139.6 290.7,137.4 292.9,131.1 
		295,137.4 	"/>
		<polygon id="star_big_4_" class="st2" points="604.3,470.6 598,472.7 595.9,479 593.7,472.7 587.4,470.6 593.7,468.4 595.9,462.1 
		598,468.4 	"/>
		<polygon id="star_big_3_" class="st2" points="774.3,370.6 768,372.7 765.9,379 763.7,372.7 757.4,370.6 763.7,368.4 765.9,362.1 
		768,368.4 	"/>
		<polygon id="star_big_2_" class="st2" points="194.3,590.6 188,592.7 185.9,599 183.7,592.7 177.4,590.6 183.7,588.4 185.9,582.1 
		188,588.4 	"/>
		<polygon id="star_big_1_" class="st2" points="1144.3,470.6 1138,472.7 1135.9,479 1133.7,472.7 1127.4,470.6 1133.7,468.4 
		1135.9,462.1 1138,468.4 	"/>
		<polygon id="star_big" class="st2" points="1350.3,21.6 1344,23.7 1341.9,30 1339.7,23.7 1333.4,21.6 1339.7,19.4 1341.9,13.1 
		1344,19.4 	"/>
		<circle id="star_small" class="st3" cx="626.5" cy="450.5" r="1"/>
		<circle id="star_small_2_" class="st3" cx="626.5" cy="29.5" r="1"/>
		<circle id="star_small_3_" class="st3" cx="877.5" cy="29.5" r="1"/>
		<circle id="star_small_4_" class="st3" cx="877.5" cy="330.5" r="1"/>
		<circle id="star_small_5_" class="st3" cx="1108.5" cy="330.5" r="1"/>
		<circle id="star_small_6_" class="st3" cx="928.5" cy="451.5" r="1"/>
		<circle id="star_small_31_" class="st3" cx="1079.8" cy="393.8" r="2.3"/>
		<circle id="star_small_35_" class="st3" cx="1280.8" cy="393.8" r="2.3"/>
		<circle id="star_small_36_" class="st3" cx="1230.8" cy="454.8" r="2.3"/>
		<circle id="star_small_34_" class="st3" cx="1068.5" cy="461.5" r="1"/>
		<circle id="star_small_33_" class="st3" cx="1188.5" cy="210.5" r="1"/>
		<circle id="star_small_7_" class="st3" cx="789.5" cy="602.5" r="1"/>
		<circle id="star_small_37_" class="st3" cx="658.5" cy="552.5" r="1"/>
		<circle id="star_small_8_" class="st3" cx="930.5" cy="602.5" r="1"/>
		<circle id="star_small_9_" class="st3" cx="1200.5" cy="575.5" r="1"/>
		<circle id="star_small_10_" class="st3" cx="1240.5" cy="164.5" r="1"/>
		<circle id="star_small_11_" class="st3" cx="699.5" cy="164.5" r="1"/>
		<circle id="star_small_12_" class="st3" cx="488.5" cy="164.5" r="1"/>
		<circle id="star_small_13_" class="st3" cx="237.5" cy="164.5" r="1"/>
		<circle id="star_small_14_" class="st3" cx="237.5" cy="3.5" r="1"/>
		<circle id="star_small_15_" class="st3" cx="46.5" cy="3.5" r="1"/>
		<circle id="star_small_16_" class="st3" cx="76.5" cy="114.5" r="1"/>
		<circle id="star_small_17_" class="st3" cx="117.5" cy="44.5" r="1"/>
		<circle id="star_small_18_" class="st3" cx="117.5" cy="195.5" r="1"/>
		<circle id="star_small_19_" class="st3" cx="76.5" cy="315.5" r="1"/>
		<circle id="star_small_20_" class="st3" cx="247.5" cy="355.5" r="1"/>
		<circle id="star_small_21_" class="st3" cx="126.5" cy="405.5" r="1"/>
		<circle id="star_small_22_" class="st3" cx="186.5" cy="546.5" r="1"/>
		<circle id="star_small_23_" class="st3" cx="75.5" cy="485.5" r="1"/>
		<circle id="star_small_24_" class="st3" cx="375.5" cy="244.5" r="1"/>
		<circle id="star_small_25_" class="st3" cx="806.5" cy="114.5" r="1"/>
		<circle id="star_small_26_" class="st3" cx="1107.5" cy="84.5" r="1"/>
		<circle id="star_small_27_" class="st3" cx="977.5" cy="215.5" r="1"/>
		<circle id="star_small_1_" class="st3" cx="456.5" cy="350.5" r="1"/>
		<circle id="star_small_28_" class="st3" cx="456.5" cy="441.5" r="1"/>
		<circle id="star_small_38_" class="st3" cx="506.5" cy="532.5" r="1"/>
		<circle id="star_small_29_" class="st3" cx="335.5" cy="411.5" r="1"/>
		<circle id="star_small_30_" class="st3" cx="265.5" cy="502.5" r="1"/>
		<g id="moon">
			<g id="glow_1_" class="st4">
				<circle class="st5" cx="1222.6" cy="112.8" r="92"/>
			</g>
			<g id="glow" class="st4">
				<circle class="st5" cx="1223" cy="112.1" r="77.1"/>
			</g>
			<g id="moon_main">
				<circle class="st5" cx="1222.5" cy="112.5" r="60.1"/>
			</g>
			<path id="spot_3_" class="st6" d="M1271.6,102c-0.7-0.6-2.3-1.9-4.6-1.8c-2.3,0.1-4.7,1.6-4.6,2.8c0.1,0.8,1.5,0.9,2.8,2.8
			c0.6,0.9,0.4,1.1,0.9,1.8c0.9,1.5,3.2,3.5,5.5,2.8c1.5-0.5,2.6-2.1,2.8-3.7C1274.6,104.4,1272.7,102.9,1271.6,102z"/>
			<path id="spot_2_" class="st6" d="M1270.7,127.7c-0.5,0.7-3.3,5-8.3,5.5c-6.4,0.7-11.1-5.4-11.9-6.4c-4.7-6.2-1.2-10.7-5.5-15.6
			c-4.5-5.1-11-3.5-11.9-7.3c-0.7-2.7,1.8-6.1,4.6-7.3c5.9-2.7,13.3,4.2,13.8,4.6c5.7,5.4,4.3,10.6,9.2,12.9c4.7,2.2,8.3-1.5,11,0.9
			C1274.4,117.3,1273.4,123.7,1270.7,127.7z"/>
			<path id="spot_1_" class="st6" d="M1258.8,90c-1.4,2.3-4.7,3.3-7.3,2.8c-3.5-0.8-3.4-3.9-7.3-5.5c-4.4-1.9-7.5,0.9-9.2-0.9
			c-2.2-2.4,0.7-9.9,3.7-10.1c2.6-0.2,4.2,5.1,6.4,4.6c1.9-0.4,1.4-4.7,3.7-5.5c2.4-0.9,5.6,2.8,6.4,3.7
			C1255.9,79.9,1261.3,85.9,1258.8,90z"/>
			<path id="spot" class="st6" d="M1234,69.8c-0.4-3.2-2.4-6.9-5.5-8.3c-3.2-1.4-5.1,0.7-12.9,1.8c-7.4,1.1-7.7-0.6-11.9,0.9
			c-1,0.4-7.7,2.8-11,9.2c-2,3.9-0.8,5.4-2.8,7.3c-3.5,3.4-8.3-0.2-12.9,2.8c-4.3,2.7-5.9,9.5-4.6,14.7c1.4,5.8,6.3,8.8,8.3,10.1
			c8.5,5.4,15.5,1.9,18.4,6.4c3,4.6-2.9,10.6,0,13.8c2.7,2.9,11.2,1.4,15.6-3.7c3.1-3.7,3.8-8.8,2.8-12.9c-1.7-6.8-7.5-7.6-7.3-11.9
			c0.1-4,5.2-4.9,12.9-11.9C1227.7,83.9,1234.9,77.2,1234,69.8z"/>
		</g>
		<g id="meteorite">
			<g id="glow_6_" class="st7">
				<circle id="glow_5_" class="st5" cx="-12" cy="-11.4" r="11.5"/>
				<path id="glow_2_" class="st5" d="M-15.5-0.5l-119.3-50.3c-0.6-0.3-0.3-1.1,0.3-1L-8.4-22.4L-15.5-0.5z"/>

				<animateTransform attributeName="transform" type="scale" from="1" to="1.1" dur="0.2s" repeatCount="indefinite" begin="0s"/>
			</g>
			<circle id="base_12_" class="st5" cx="-11" cy="-11.1" r="7"/>
			<g id="glow_7_" class="st7">
				<circle id="glow_9_" class="st5" cx="-11" cy="-10.9" r="8.6"/>
				<path id="glow_8_" class="st5" d="M-13.6-2.7l-88.9-37.5c-0.4-0.2-0.2-0.9,0.2-0.7L-8.3-19L-13.6-2.7z"/>

				<animateTransform attributeName="transform" type="scale" from="1" to="1.1" dur="0.2s" repeatCount="indefinite" begin="0s"/>
			</g>

			<animateTransform xlink:href="#meteorite" id="meteoriteFly" attributeName="transform" type="translate" from="-67 -26" to="1500 600" dur="1.5s" begin="2s;meteoriteFly.end + 10s"/>
		</g>
	</g>
</svg>
