<svg id="Layer_1" data-name="Layer 1" xmlns="http://www.w3.org/2000/svg" xmlns:xlink="http://www.w3.org/1999/xlink" viewBox="0 0 375 812"><defs><style>.cls-1,.cls-10,.cls-12,.cls-14,.cls-4,.cls-8{fill:none;}.cls-2{clip-path:url(#clip-path);}.cls-3{fill:#141037;}.cls-4{stroke:#4f4da0;stroke-width:10px;}.cls-10,.cls-12,.cls-13,.cls-14,.cls-4,.cls-7,.cls-8,.cls-9{stroke-linecap:round;stroke-linejoin:round;}.cls-5{fill:#100f1a;}.cls-6{fill:#c48435;}.cls-7{fill:#a36534;stroke:#a36535;}.cls-10,.cls-12,.cls-13,.cls-7,.cls-8,.cls-9{stroke-width:4px;}.cls-8,.cls-9{stroke:#a36534;}.cls-9{fill:#a36533;}.cls-10{stroke:#daa048;}.cls-11{fill:#3d2e24;}.cls-12{stroke:#755745;}.cls-13{fill:#441116;stroke:#441116;}.cls-14{stroke:#621014;stroke-width:3px;}</style><clipPath id="clip-path"><rect id="mask" class="cls-1" width="375" height="812"/></clipPath></defs><g class="cls-2"><g id="front"><g id="ground"><path id="base" class="cls-3" d="M-989.5,794.59a483.11,483.11,0,0,1,86-31c131.4-33.69,193.89,10.27,379,31,125.19,14,246.59,26.25,377-26,53.92-21.61,51.7-31.12,101-46,127.38-38.45,249.49-7.31,318,11a800.15,800.15,0,0,1,105,36V863l-1366-.41Z"/><path id="light" class="cls-4" d="M-68.79,735.64c6.17-2.44,13.39-4.95,22.29-7.64,127.38-38.45,249.49-7.3,318,11a801.65,801.65,0,0,1,105,36"/></g><ellipse id="dog_shadow" data-name="dog shadow" class="cls-5" cx="213" cy="780" rx="89.5" ry="15.77"/><g id="dog"><path id="base-2" data-name="base" class="cls-6" d="M228.12,762.25c16.25-6,39.35.85,39.35.85,4.33,1.62,38.08,22,23.09,18.82-40.2-8.55-58.16-3.42-58.16-3.42-41.06,6-53-.86-53-.86-3.43-.85-18,0-18,0-9.41,0-12.83-4.27-12.83-4.27a1.2,1.2,0,0,1,0-1.72c5.14-18-.85-34.21-.85-34.21-7.7-19.67,7.7-41.91,7.7-41.91,2.56-23.95,0-35.93,0-35.93C148.57,630.52,165.68,604,165.68,604c6.84-9.41,6-29.09,6-29.09-33.36,0,12-24.8,12-24.8,3.42-6.85,16.25-6.85,16.25-6.85,23.1-33.35,18,19.68,18,19.68,28.22,36.78-2.57,16.25-2.57,16.25-5.13,6-1.71,31.65-1.71,31.65,8.55,39.34-.38,52.23-.38,52.23-2.09,18.88,1.24,30.74,1.24,30.74s14.42,17.68,9.35,45.62a70.62,70.62,0,0,0-.8,23.66Z"/><g id="shadows"><path id="shadow" class="cls-7" d="M179.37,775.93C160.55,765.67,152.85,746,152.85,746l2.06,7.38A30,30,0,0,0,172.27,773l7.1,3"/><path id="shadow-2" data-name="shadow" class="cls-7" d="M221.28,745.14s-2.57,17.11-27.37,20.53c0,0,21.76.26,28-3.72C221.9,762,220.57,749.42,221.28,745.14Z"/><path id="shadow-3" data-name="shadow" class="cls-8" d="M227.63,583.2c-3.87.17-12.69-5.71-12.69-5.71a22.84,22.84,0,0,0-3.93,15.4"/><path id="shadow-4" data-name="shadow" class="cls-8" d="M171.31,573.21c-5.79,0-9.22-.75-10.91-2"/><path id="shadow-5" data-name="shadow" class="cls-8" d="M287.11,779.57c-38-7.65-55.07-2.78-55.07-2.78-41,6-53-.86-53-.86"/><path id="shadow-6" data-name="shadow" class="cls-8" d="M213.63,551.74s3-1.62,3,3.51"/><path id="shadow-7" data-name="shadow" class="cls-9" d="M206.61,649.63a15.32,15.32,0,0,0,4.61-3.23,24.42,24.42,0,0,0,3.68-5.79s4.53,6.81-3.32,25.31C211.58,665.92,211.43,657,206.61,649.63Z"/></g><g id="lights"><path id="light-2" data-name="light" class="cls-10" d="M228.61,583.14c-.51-3-3.76-8.8-11.84-19.34,0,0,1.94-7.69-3.14-12.06"/><path id="light-3" data-name="light" class="cls-10" d="M160.53,570.27c3.46-7.35,23.73-18.44,23.73-18.44,3.42-6.84,16.25-6.84,16.25-6.84,4.5-6.5,7.92-9.72,10.52-10.69"/><path id="light-4" data-name="light" class="cls-10" d="M155.44,640.62a86.33,86.33,0,0,1,10.81-35.1"/><path id="light-5" data-name="light" class="cls-10" d="M147.27,729.61c-1.55-13.41,5.08-26.5,8.14-31.72"/><path id="light-6" data-name="light" class="cls-10" d="M291.68,781.06c-5.32-5.08-22.32-15.13-25.3-16.25,0,0-23.1-6.84-39.35-.85,0,0-16.87,4.27-34,3.42"/><path id="light-7" data-name="light" class="cls-10" d="M212.49,693.82s11.82,14.49,10.29,38"/><path id="light-8" data-name="light" class="cls-10" d="M215.34,640.61a144,144,0,0,0-3.4-28.34"/><path id="light-9" data-name="light" class="cls-10" d="M210.94,672.37s1.78-10.2-4.75-22.74"/><path id="light-10" data-name="light" class="cls-10" d="M157.92,672.67s-1.78-10.2,4.75-22.74"/><path id="light-11" data-name="light" class="cls-10" d="M149.86,772.17s2.13,5.47,19.24,3.42"/></g><g id="nose"><path id="base-3" data-name="base" class="cls-11" d="M217.26,539.24c-1.42-6.41-4.3-10-10.86-3.66a11,11,0,0,0,4.44,3.27A18.78,18.78,0,0,0,217.26,539.24Z"/><path id="light-12" data-name="light" class="cls-12" d="M213.92,534.5c-1.44-.91-3.33-.73-5.79,1.09"/></g><g id="collar"><path id="base-4" data-name="base" class="cls-13" d="M212.49,596.38s-9.17-.07-20.55-.81a94.43,94.43,0,0,1-21.46-4.33l-1.24,5.14S181.05,600,191,600.65c12.34.79,21.73.85,21.73.85Z"/><path id="light-13" data-name="light" class="cls-14" d="M212.81,596.11s-9.17-.07-20.55-.81A90.11,90.11,0,0,1,175,592.23"/></g></g></g></g></svg>